<?xml version="1.0" encoding="UTF-8" standalone="no"?>
<!-- Created with Inkscape (http://www.inkscape.org/) -->

<svg
   xmlns:dc="http://purl.org/dc/elements/1.1/"
   xmlns:cc="http://creativecommons.org/ns#"
   xmlns:rdf="http://www.w3.org/1999/02/22-rdf-syntax-ns#"
   xmlns:svg="http://www.w3.org/2000/svg"
   xmlns="http://www.w3.org/2000/svg"
   xmlns:xlink="http://www.w3.org/1999/xlink"
   xmlns:sodipodi="http://sodipodi.sourceforge.net/DTD/sodipodi-0.dtd"
   xmlns:inkscape="http://www.inkscape.org/namespaces/inkscape"
   width="800"
   height="800"
   id="svg2"
   version="1.1"
   inkscape:version="0.47 r22583"
   sodipodi:docname="flip-clock.svg">
  <defs
     id="defs4">
    <linearGradient
       id="linearGradient4155">
      <stop
         style="stop-color:#000000;stop-opacity:1;"
         offset="0"
         id="stop4157" />
      <stop
         style="stop-color:#000000;stop-opacity:0;"
         offset="1"
         id="stop4159" />
    </linearGradient>
    <linearGradient
       id="linearGradient3789">
      <stop
         style="stop-color:#000000;stop-opacity:1;"
         offset="0"
         id="stop3791" />
      <stop
         id="stop3797"
         offset="0.74545455"
         style="stop-color:#000000;stop-opacity:1;" />
      <stop
         style="stop-color:#000000;stop-opacity:0;"
         offset="1"
         id="stop3793" />
    </linearGradient>
    <linearGradient
       id="linearGradient3779">
      <stop
         style="stop-color:#16182e;stop-opacity:1;"
         offset="0"
         id="stop3781" />
      <stop
         style="stop-color:#30334c;stop-opacity:1;"
         offset="1"
         id="stop3783" />
    </linearGradient>
    <linearGradient
       id="linearGradient3767">
      <stop
         style="stop-color:#30334c;stop-opacity:1;"
         offset="0"
         id="stop3769" />
      <stop
         id="stop3775"
         offset="0.05650566"
         style="stop-color:#4d4f64;stop-opacity:1;" />
      <stop
         style="stop-color:#747896;stop-opacity:1;"
         offset="0.90227288"
         id="stop3777" />
      <stop
         style="stop-color:#8387a7;stop-opacity:1;"
         offset="1"
         id="stop3771" />
    </linearGradient>
    <inkscape:perspective
       sodipodi:type="inkscape:persp3d"
       inkscape:vp_x="0 : 526.18109 : 1"
       inkscape:vp_y="0 : 1000 : 0"
       inkscape:vp_z="744.09448 : 526.18109 : 1"
       inkscape:persp3d-origin="372.04724 : 350.78739 : 1"
       id="perspective10" />
    <linearGradient
       inkscape:collect="always"
       xlink:href="#linearGradient3767"
       id="linearGradient4006"
       gradientUnits="userSpaceOnUse"
       x1="390"
       y1="309.08148"
       x2="474"
       y2="856.08148"
       gradientTransform="translate(-1.2245654,62.280701)" />
    <linearGradient
       inkscape:collect="always"
       xlink:href="#linearGradient4155"
       id="linearGradient4209"
       gradientUnits="userSpaceOnUse"
       x1="435.82443"
       y1="643.8855"
       x2="474.92825"
       y2="524.31604" />
    <linearGradient
       inkscape:collect="always"
       xlink:href="#linearGradient4155"
       id="linearGradient3109"
       gradientUnits="userSpaceOnUse"
       x1="435.82443"
       y1="643.8855"
       x2="474.92825"
       y2="524.31604"
       gradientTransform="translate(0,252.36218)" />
    <linearGradient
       inkscape:collect="always"
       xlink:href="#linearGradient3767"
       id="linearGradient3112"
       gradientUnits="userSpaceOnUse"
       gradientTransform="translate(-1.2245654,62.280701)"
       x1="390"
       y1="309.08148"
       x2="474"
       y2="856.08148" />
    <linearGradient
       inkscape:collect="always"
       xlink:href="#linearGradient3767"
       id="linearGradient3150"
       gradientUnits="userSpaceOnUse"
       gradientTransform="translate(-1.2245654,62.280701)"
       x1="390"
       y1="309.08148"
       x2="474"
       y2="856.08148" />
    <linearGradient
       inkscape:collect="always"
       xlink:href="#linearGradient3767"
       id="linearGradient3312"
       gradientUnits="userSpaceOnUse"
       gradientTransform="translate(-1.2245654,62.280701)"
       x1="390"
       y1="309.08148"
       x2="474"
       y2="856.08148" />
    <linearGradient
       inkscape:collect="always"
       xlink:href="#linearGradient3767"
       id="linearGradient3387"
       gradientUnits="userSpaceOnUse"
       gradientTransform="translate(-1.2245654,62.280701)"
       x1="390"
       y1="309.08148"
       x2="474"
       y2="856.08148" />
    <linearGradient
       inkscape:collect="always"
       xlink:href="#linearGradient3767"
       id="linearGradient3146"
       gradientUnits="userSpaceOnUse"
       gradientTransform="translate(-1.2245654,62.280701)"
       x1="390"
       y1="309.08148"
       x2="474"
       y2="856.08148" />
    <linearGradient
       inkscape:collect="always"
       xlink:href="#linearGradient3767"
       id="linearGradient3216"
       gradientUnits="userSpaceOnUse"
       gradientTransform="translate(-1.8e-6,62.280696)"
       x1="390"
       y1="309.08148"
       x2="474"
       y2="856.08148" />
  </defs>
  <sodipodi:namedview
     id="base"
     pagecolor="#ffffff"
     bordercolor="#666666"
     borderopacity="1.0"
     inkscape:pageopacity="0.0"
     inkscape:pageshadow="2"
     inkscape:zoom="1"
     inkscape:cx="400"
     inkscape:cy="400"
     inkscape:document-units="px"
     inkscape:current-layer="layer1"
     showgrid="false"
     inkscape:window-width="1280"
     inkscape:window-height="725"
     inkscape:window-x="0"
     inkscape:window-y="24"
     inkscape:window-maximized="1"
     inkscape:snap-grids="false"
     inkscape:snap-bbox="false"
     inkscape:bbox-nodes="false"
     inkscape:snap-to-guides="false"
     inkscape:snap-global="false"
     inkscape:snap-nodes="false">
    <inkscape:grid
       type="xygrid"
       id="grid3061"
       empspacing="5"
       visible="true"
       enabled="true"
       snapvisiblegridlinesonly="true" />
  </sodipodi:namedview>
  <metadata
     id="metadata7">
    <rdf:RDF>
      <cc:Work
         rdf:about="">
        <dc:format>image/svg+xml</dc:format>
        <dc:type
           rdf:resource="http://purl.org/dc/dcmitype/StillImage" />
        <dc:title />
      </cc:Work>
    </rdf:RDF>
  </metadata>
  <g
     inkscape:label="Layer 1"
     inkscape:groupmode="layer"
     id="layer1"
     transform="translate(0,-252.36218)">
    <g
       id="1"
       transform="matrix(2.0000002,0,0,2.0000002,652.00002,-408.36216)">
      <rect
         y="340.36218"
         x="164"
         height="60"
         width="40"
         id="rect3696"
         style="fill:#000000;fill-opacity:1;stroke:none" />
      <g
         style="font-size:48px;font-style:normal;font-variant:normal;font-weight:bold;font-stretch:normal;text-align:start;line-height:125%;writing-mode:lr-tb;text-anchor:start;fill:#ffffff;fill-opacity:1;stroke:none;font-family:FreeSans;-inkscape-font-specification:FreeSans Bold"
         id="text3596">
        <path
           d="m 183.15999,363.90617 -8.16,0 0,-4.464 c 5.88799,3e-5 9.35999,-2.03197 10.416,-6.096 l 4.464,0 0,34.032 -6.72,0 0,-23.472"
           style=""
           id="path3202" />
      </g>
    </g>
    <g
       id="2"
       transform="matrix(2.0000002,0,0,2.0000002,588.69672,-416.84746)">
      <rect
         y="344.60483"
         x="235.65164"
         height="60"
         width="40"
         id="rect3698"
         style="fill:#000000;fill-opacity:1;stroke:none" />
      <g
         style="font-size:48px;font-style:normal;font-variant:normal;font-weight:bold;font-stretch:normal;text-align:start;line-height:125%;writing-mode:lr-tb;text-anchor:start;fill:#ffffff;fill-opacity:1;stroke:none;font-family:FreeSans;-inkscape-font-specification:FreeSans Bold"
         id="text3600">
        <path
           d="m 267.29164,368.02883 c -2e-5,1.88803 -0.41602,3.60003 -1.248,5.136 -0.80002,1.53602 -1.82402,2.83202 -3.072,3.888 -1.24802,1.02402 -2.52802,1.98402 -3.84,2.88 -1.31202,0.86402 -2.57601,1.82402 -3.792,2.88 -1.21601,1.02401 -2.08001,2.08001 -2.592,3.168 l 14.4,0 0,6 -23.136,0 c 0.16,-3.13599 0.784,-5.61599 1.872,-7.44 1.12,-1.85599 3.11999,-3.79198 6,-5.808 3.74399,-2.62398 6.12798,-4.55998 7.152,-5.808 1.02398,-1.27997 1.53598,-2.86397 1.536,-4.752 -2e-5,-1.69597 -0.43202,-3.02397 -1.296,-3.984 -0.83202,-0.99197 -2.00001,-1.48797 -3.504,-1.488 -1.53601,3e-5 -2.73601,0.52803 -3.6,1.584 -0.83201,1.05603 -1.24801,2.52803 -1.248,4.416 l 0,1.104 -6.432,0 c -0.032,-0.35197 -0.048,-0.75197 -0.048,-1.2 0,-3.58397 0.976,-6.36797 2.928,-8.352 1.98399,-2.01596 4.73599,-3.02396 8.256,-3.024 3.58398,4e-5 6.41598,0.97604 8.496,2.928 2.11198,1.95203 3.16798,4.57603 3.168,7.872"
           style=""
           id="path3199" />
      </g>
    </g>
    <g
       id="3"
       transform="matrix(2.0000002,0,0,2.0000002,515.96162,-411.19066)">
      <rect
         y="341.7764"
         x="312.0192"
         height="60"
         width="40"
         id="rect3700"
         style="fill:#000000;fill-opacity:1;stroke:none" />
      <g
         style="font-size:48px;font-style:normal;font-variant:normal;font-weight:bold;font-stretch:normal;text-align:start;line-height:125%;writing-mode:lr-tb;text-anchor:start;fill:#ffffff;fill-opacity:1;stroke:none;font-family:FreeSans;-inkscape-font-specification:FreeSans Bold"
         id="text3604">
        <path
           d="m 320.76321,364.6964 c 0,-1.75997 0.24,-3.31197 0.72,-4.656 0.512,-1.34397 1.136,-2.39997 1.872,-3.168 0.76799,-0.76796 1.66399,-1.37596 2.688,-1.824 1.02399,-0.47996 1.98399,-0.79996 2.88,-0.96 0.92799,-0.15996 1.88799,-0.23996 2.88,-0.24 3.29598,4e-5 5.91998,0.84804 7.872,2.544 1.95198,1.66403 2.92798,3.90403 2.928,6.72 -2e-5,1.56803 -0.35202,2.92803 -1.056,4.08 -0.70402,1.12002 -1.84002,2.17602 -3.408,3.168 1.91998,0.92802 3.32798,2.08002 4.224,3.456 0.89597,1.34402 1.34397,3.00801 1.344,4.992 -3e-5,3.32801 -1.08802,5.98401 -3.264,7.968 -2.14402,1.952 -5.02402,2.928 -8.64,2.928 -3.48801,0 -6.27201,-0.992 -8.352,-2.976 -2.048,-2.01599 -3.088,-4.71999 -3.12,-8.112 l 6.528,0 c 0.19199,3.55201 1.88799,5.32801 5.088,5.328 1.47198,1e-5 2.67198,-0.47999 3.6,-1.44 0.95998,-0.95999 1.43998,-2.19199 1.44,-3.696 -2e-5,-1.24799 -0.33602,-2.31999 -1.008,-3.216 -0.67202,-0.92798 -1.56802,-1.55198 -2.688,-1.872 -0.89601,-0.22398 -2.20801,-0.33598 -3.936,-0.336 l 0,-4.512 0.576,0 c 3.96798,2e-5 5.95198,-1.71198 5.952,-5.136 -2e-5,-1.40797 -0.36802,-2.49597 -1.104,-3.264 -0.73602,-0.79997 -1.77602,-1.19997 -3.12,-1.2 -1.76001,3e-5 -2.96001,0.49603 -3.6,1.488 -0.64001,0.99203 -0.99201,2.49603 -1.056,4.512 l -6.24,0 0,-0.576"
           style=""
           id="path3196" />
      </g>
    </g>
    <g
       id="4"
       transform="matrix(2.0000002,0,0,2.0000002,465.85402,-391.39156)"
       inkscape:label="#4">
      <rect
         y="331.87689"
         x="377.073"
         height="60"
         width="40"
         id="rect3702"
         style="fill:#000000;fill-opacity:1;stroke:none" />
      <g
         style="font-size:48px;font-style:normal;font-variant:normal;font-weight:bold;font-stretch:normal;text-align:start;line-height:125%;writing-mode:lr-tb;text-anchor:start;fill:#ffffff;fill-opacity:1;stroke:none;font-family:FreeSans;-inkscape-font-specification:FreeSans Bold"
         id="text3608">
        <path
           d="m 409.02499,365.78888 0,5.568 -3.552,0 0,7.536 -6.72,0 0,-7.536 -13.632,0 0,-5.664 12.432,-20.832 7.92,0 0,20.928 3.552,0 m -10.272,0 0,-14.544 -8.88,14.544 8.88,0"
           style=""
           id="path3193" />
      </g>
    </g>
    <g
       id="5"
       transform="matrix(2.0000002,0,0,2.0000002,683.25512,-477.86686)">
      <rect
         y="435.1145"
         x="108.37243"
         height="60"
         width="40"
         id="rect3704"
         style="fill:#000000;fill-opacity:1;stroke:none" />
      <g
         style="font-size:48px;font-style:normal;font-variant:normal;font-weight:bold;font-stretch:normal;text-align:start;line-height:125%;writing-mode:lr-tb;text-anchor:start;fill:#ffffff;fill-opacity:1;stroke:none;font-family:FreeSans;-inkscape-font-specification:FreeSans Bold"
         id="text3612">
        <path
           d="m 138.78843,447.54649 0,6 -14.064,0 -1.104,7.104 c 1.82399,-1.37598 3.79199,-2.06398 5.904,-2.064 3.13598,2e-5 5.67998,1.08802 7.632,3.264 1.98398,2.17602 2.97597,5.00802 2.976,8.496 -3e-5,3.68001 -1.13602,6.65601 -3.408,8.928 -2.27202,2.272 -5.23202,3.408 -8.88,3.408 -3.29601,0 -5.98401,-0.912 -8.064,-2.736 -2.048,-1.856 -3.104,-4.27199 -3.168,-7.248 l 6.624,0 c 0.15999,2.81601 1.72799,4.22401 4.704,4.224 1.69598,1e-5 3.02398,-0.57599 3.984,-1.728 0.99198,-1.15199 1.48798,-2.71999 1.488,-4.704 -2e-5,-2.04799 -0.49602,-3.64798 -1.488,-4.8 -0.96002,-1.18398 -2.28802,-1.77598 -3.984,-1.776 -2.14401,2e-5 -3.58401,0.86402 -4.32,2.592 l -6.048,0 3.024,-18.96 18.192,0"
           style=""
           id="path3181" />
      </g>
    </g>
    <g
       id="6"
       transform="matrix(2.0000002,0,0,2.0000002,647.28962,-475.03836)">
      <rect
         y="433.70029"
         x="166.35518"
         height="60"
         width="40"
         id="rect3706"
         style="fill:#000000;fill-opacity:1;stroke:none" />
      <g
         style="font-size:48px;font-style:normal;font-variant:normal;font-weight:bold;font-stretch:normal;text-align:start;line-height:125%;writing-mode:lr-tb;text-anchor:start;fill:#ffffff;fill-opacity:1;stroke:none;font-family:FreeSans;-inkscape-font-specification:FreeSans Bold"
         id="text3616">
        <path
           d="m 174.66718,464.34829 c 0,-12.38397 4.19199,-18.57596 12.576,-18.576 0.60799,4e-5 1.19998,0.032 1.776,0.096 0.57598,0.064 1.34398,0.25604 2.304,0.576 0.99198,0.32004 1.85598,0.75204 2.592,1.296 0.76798,0.54403 1.48798,1.37603 2.16,2.496 0.70398,1.12003 1.16798,2.44803 1.392,3.984 l -6.24,0 c -0.44802,-1.08797 -0.99202,-1.85597 -1.632,-2.304 -0.60802,-0.47997 -1.45602,-0.71997 -2.544,-0.72 -1.34401,3e-5 -2.48001,0.43203 -3.408,1.296 -0.89601,0.86403 -1.50401,2.06403 -1.824,3.6 -0.19201,0.96003 -0.33601,2.64002 -0.432,5.04 1.05599,-1.08798 2.09599,-1.85598 3.12,-2.304 1.02399,-0.47998 2.23999,-0.71998 3.648,-0.72 2.91198,2e-5 5.27998,1.02402 7.104,3.072 1.85598,2.04802 2.78397,4.70402 2.784,7.968 -3e-5,3.71201 -1.05602,6.72001 -3.168,9.024 -2.08002,2.304 -4.81602,3.456 -8.208,3.456 -2.01601,0 -3.87201,-0.448 -5.568,-1.344 -1.66401,-0.896 -2.99201,-2.128 -3.984,-3.696 -1.632,-2.59199 -2.448,-6.67199 -2.448,-12.24 m 15.6,0.72 c -0.92802,-1.11998 -2.17602,-1.67998 -3.744,-1.68 -1.56801,2e-5 -2.83201,0.59202 -3.792,1.776 -0.96001,1.15202 -1.44001,2.67201 -1.44,4.56 -1e-5,1.79201 0.47999,3.26401 1.44,4.416 0.95999,1.15201 2.20799,1.72801 3.744,1.728 1.50398,10e-6 2.73598,-0.59199 3.696,-1.776 0.99198,-1.18399 1.48798,-2.68799 1.488,-4.512 -2e-5,-1.88799 -0.46402,-3.39198 -1.392,-4.512"
           style=""
           id="path3178" />
      </g>
    </g>
    <g
       id="7"
       transform="matrix(2.0000002,0,0,2.0000002,608.49572,-472.20996)">
      <rect
         y="432.28607"
         x="225.75215"
         height="60"
         width="40"
         id="rect3708"
         style="fill:#000000;fill-opacity:1;stroke:none" />
      <g
         style="font-size:48px;font-style:normal;font-variant:normal;font-weight:bold;font-stretch:normal;text-align:start;line-height:125%;writing-mode:lr-tb;text-anchor:start;fill:#ffffff;fill-opacity:1;stroke:none;font-family:FreeSans;-inkscape-font-specification:FreeSans Bold"
         id="text3620">
        <path
           d="m 257.72816,445.27006 0,5.28 c -4.03203,4.86403 -6.99202,9.53602 -8.88,14.016 -1.88802,4.44801 -2.99202,9.36001 -3.312,14.736 l -6.768,0 c 0.83199,-6.59199 2.31999,-12.14398 4.464,-16.656 0.67198,-1.47198 1.82398,-3.45598 3.456,-5.952 1.66398,-2.49597 3.00798,-4.30397 4.032,-5.424 l -16.944,0 0,-6 23.952,0"
           style=""
           id="path3175" />
      </g>
    </g>
    <g
       id="8"
       transform="matrix(2.0000002,0,0,2.0000002,532.93222,-466.55316)">
      <rect
         y="429.45764"
         x="303.53391"
         height="60"
         width="40"
         id="rect3710"
         style="fill:#000000;fill-opacity:1;stroke:none" />
      <g
         style="font-size:48px;font-style:normal;font-variant:normal;font-weight:bold;font-stretch:normal;text-align:start;line-height:125%;writing-mode:lr-tb;text-anchor:start;fill:#ffffff;fill-opacity:1;stroke:none;font-family:FreeSans;-inkscape-font-specification:FreeSans Bold"
         id="text3624">
        <path
           d="m 334.45391,450.74565 c -2e-5,1.79202 -0.40002,3.23202 -1.2,4.32 -0.76802,1.05602 -1.84002,1.95202 -3.216,2.688 1.95198,1.05601 3.35998,2.27201 4.224,3.648 0.89598,1.37601 1.34398,3.07201 1.344,5.088 -2e-5,3.2 -1.12002,5.824 -3.36,7.872 -2.24002,2.016 -5.13601,3.024 -8.688,3.024 -3.58401,0 -6.496,-1.008 -8.736,-3.024 -2.24,-2.016 -3.36,-4.64 -3.36,-7.872 0,-2.01599 0.432,-3.71199 1.296,-5.088 0.896,-1.37599 2.32,-2.59199 4.272,-3.648 -1.536,-0.83198 -2.656,-1.79198 -3.36,-2.88 -0.704,-1.08798 -1.056,-2.44798 -1.056,-4.08 0,-2.68798 1.024,-4.89597 3.072,-6.624 2.08,-1.75997 4.70399,-2.63997 7.872,-2.64 3.13599,3e-5 5.72799,0.88003 7.776,2.64 2.07998,1.72803 3.11998,3.92002 3.12,6.576 m -7.2,-2.544 c -0.92801,-0.83197 -2.14401,-1.24797 -3.648,-1.248 -1.50401,3e-5 -2.73601,0.41603 -3.696,1.248 -0.928,0.80002 -1.392,1.85602 -1.392,3.168 0,1.31202 0.464,2.40002 1.392,3.264 0.95999,0.83202 2.19199,1.24802 3.696,1.248 1.47199,2e-5 2.67199,-0.41598 3.6,-1.248 0.95999,-0.83198 1.43999,-1.90398 1.44,-3.216 -1e-5,-1.31198 -0.46401,-2.38398 -1.392,-3.216 m -3.744,12.24 c -1.60001,1e-5 -2.89601,0.51201 -3.888,1.536 -0.96,1.02401 -1.44,2.40001 -1.44,4.128 0,1.69601 0.48,3.04 1.44,4.032 0.95999,0.992 2.25599,1.488 3.888,1.488 1.63199,0 2.92799,-0.496 3.888,-1.488 0.99199,-0.992 1.48799,-2.30399 1.488,-3.936 -1e-5,-1.75999 -0.48001,-3.15199 -1.44,-4.176 -0.96001,-1.05599 -2.27201,-1.58399 -3.936,-1.584"
           style=""
           id="path3172" />
      </g>
    </g>
    <g
       id="9"
       transform="matrix(2.0000002,0,0,2.0000002,482.82452,-466.55316)">
      <rect
         style="fill:#000000;fill-opacity:1;stroke:none"
         id="rect3694"
         width="40"
         height="60"
         x="368.58774"
         y="429.45764" />
      <g
         style="font-size:48px;font-style:normal;font-variant:normal;font-weight:bold;font-stretch:normal;text-align:start;line-height:125%;writing-mode:lr-tb;text-anchor:start;fill:#ffffff;fill-opacity:1;stroke:none;font-family:FreeSans;-inkscape-font-specification:FreeSans Bold"
         id="text3628">
        <path
           d="m 400.29974,458.49763 c -3e-5,3.07201 -0.27203,5.77601 -0.816,8.112 -0.54403,2.33601 -1.23202,4.176 -2.064,5.52 -0.80002,1.344 -1.77602,2.432 -2.928,3.264 -1.15202,0.8 -2.25602,1.328 -3.312,1.584 -1.05602,0.288 -2.19202,0.432 -3.408,0.432 -2.94401,0 -5.40801,-0.848 -7.392,-2.544 -1.952,-1.728 -2.96,-3.904 -3.024,-6.528 l 6.48,0 c 0.064,0.99201 0.46399,1.79201 1.2,2.4 0.76799,0.608 1.74399,0.912 2.928,0.912 3.74398,0 5.61598,-3.23199 5.616,-9.696 -0.032,0.032 -0.16002,0.19201 -0.384,0.48 -0.22402,0.25601 -0.41602,0.46401 -0.576,0.624 -0.12802,0.12801 -0.33602,0.33601 -0.624,0.624 -0.28802,0.25601 -0.59202,0.46401 -0.912,0.624 -0.28802,0.16001 -0.64002,0.33601 -1.056,0.528 -0.38402,0.16001 -0.83202,0.28801 -1.344,0.384 -0.51201,0.064 -1.05601,0.096 -1.632,0.096 -3.00801,1e-5 -5.45601,-1.08799 -7.344,-3.264 -1.888,-2.17598 -2.832,-5.02398 -2.832,-8.544 0,-3.55197 1.056,-6.43197 3.168,-8.64 2.14399,-2.23997 4.91199,-3.35997 8.304,-3.36 1.08798,3e-5 2.12798,0.12803 3.12,0.384 0.99198,0.22403 2.03198,0.72003 3.12,1.488 1.11998,0.73603 2.07998,1.69603 2.88,2.88 0.83198,1.18403 1.50397,2.83203 2.016,4.944 0.54397,2.11202 0.81597,4.54402 0.816,7.296 m -12.144,-11.52 c -1.50401,3e-5 -2.70401,0.59203 -3.6,1.776 -0.86401,1.15203 -1.29601,2.70402 -1.296,4.656 -1e-5,1.95202 0.44799,3.50402 1.344,4.656 0.89599,1.12002 2.11199,1.68002 3.648,1.68 1.53598,2e-5 2.78398,-0.57598 3.744,-1.728 0.95998,-1.15198 1.43998,-2.65598 1.44,-4.512 -2e-5,-1.98398 -0.48002,-3.56797 -1.44,-4.752 -0.92802,-1.18397 -2.20802,-1.77597 -3.84,-1.776"
           style=""
           id="path3169" />
      </g>
    </g>
    <g
       id="pm"
       transform="matrix(2.0000002,0,0,2.0000002,663.33672,-478.33566)">
      <rect
         style="fill:#000000;fill-opacity:1;stroke:none"
         id="rect3764"
         width="140"
         height="60"
         x="318.33167"
         y="435.34891" />
      <g
         style="font-size:48px;font-style:normal;font-variant:normal;font-weight:bold;font-stretch:normal;text-align:start;line-height:125%;writing-mode:lr-tb;text-anchor:start;fill:#ffffff;fill-opacity:1;stroke:none;font-family:FreeSans;-inkscape-font-specification:FreeSans Bold"
         id="text3636">
        <path
           d="m 349.51655,470.36491 0,12.48 -7.2,0 0,-34.992 15.456,0 c 3.64798,3e-5 6.43197,0.92803 8.352,2.784 1.95197,1.85603 2.92797,4.54403 2.928,8.064 -3e-5,3.55202 -0.96003,6.38402 -2.88,8.496 -1.92003,2.11201 -4.48002,3.16801 -7.68,3.168 l -8.976,0 m 0,-6 6.72,0 c 3.74398,2e-5 5.61598,-1.74398 5.616,-5.232 -2e-5,-1.79197 -0.46402,-3.11997 -1.392,-3.984 -0.89602,-0.86397 -2.30402,-1.29597 -4.224,-1.296 l -6.72,0 0,10.512"
           style=""
           id="path3160" />
        <path
           d="m 381.00305,475.83691 0,7.008 -7.2,0 0,-7.008 7.2,0"
           style=""
           id="path3162" />
        <path
           d="m 394.41155,455.58091 0,27.264 -7.2,0 0,-34.992 10.752,0 6.336,27.84 6.144,-27.84 10.848,0 0,34.992 -7.2,0 0,-27.264 -6.192,27.264 -7.2,0 -6.288,-27.264"
           style=""
           id="path3164" />
        <path
           d="m 434.3468,475.83691 0,7.008 -7.2,0 0,-7.008 7.2,0"
           style=""
           id="path3166" />
      </g>
    </g>
    <g
       id="mar"
       transform="matrix(2.0000002,0,0,2.0000002,598.86772,-1124.4575)">
      <rect
         style="fill:#000000;fill-opacity:1;stroke:none"
         id="rect3831"
         width="140"
         height="60"
         x="430.56613"
         y="848.40979" />
      <g
         style="font-size:48px;font-style:normal;font-variant:normal;font-weight:bold;font-stretch:normal;text-align:start;line-height:125%;writing-mode:lr-tb;text-anchor:start;fill:#ffffff;fill-opacity:1;stroke:none;font-family:FreeSans;-inkscape-font-specification:FreeSans Bold"
         id="text3650">
        <path
           d="m 455.74276,868.64176 0,27.264 -7.2,0 0,-34.992 10.752,0 6.336,27.84 6.144,-27.84 10.848,0 0,34.992 -7.2,0 0,-27.264 -6.192,27.264 -7.2,0 -6.288,-27.264"
           style=""
           id="path3139" />
        <path
           d="m 509.45401,888.84976 -13.104,0 -2.352,7.056 -7.344,0 12.432,-34.992 7.968,0 12.096,34.992 -7.392,0 -2.304,-7.056 m -1.968,-6 -4.56,-13.68 -4.56,13.68 9.12,0"
           style=""
           id="path3141" />
        <path
           d="m 543.75751,889.90576 c -3e-5,-0.95999 0.016,-1.71199 0.048,-2.256 0.032,-0.54399 0.048,-1.02399 0.048,-1.44 -3e-5,-1.47199 -0.35203,-2.52799 -1.056,-3.168 -0.70403,-0.67198 -1.84003,-1.00798 -3.408,-1.008 l -8.256,0 0,13.872 -7.2,0 0,-34.992 18.768,0 c 1.79197,4e-5 3.32797,0.30404 4.608,0.912 1.31197,0.60804 2.28797,1.40803 2.928,2.4 0.67197,0.99203 1.15196,2.00003 1.44,3.024 0.28796,0.99203 0.43196,2.03203 0.432,3.12 -4e-5,4.22402 -1.96803,7.10402 -5.904,8.64 0.86397,0.35202 1.50397,0.64002 1.92,0.864 0.41597,0.19202 0.83197,0.52802 1.248,1.008 0.44797,0.48002 0.73597,0.91202 0.864,1.296 0.15997,0.38402 0.30397,1.08801 0.432,2.112 0.15997,1.02401 0.25597,2.03201 0.288,3.024 0.032,0.99201 0.064,2.46401 0.096,4.416 -4e-5,1.344 0.51196,2.304 1.536,2.88 l 0,1.296 -7.728,0 c -0.44803,-0.832 -0.75203,-1.632 -0.912,-2.4 -0.12803,-0.768 -0.19203,-1.96799 -0.192,-3.6 m 1.152,-18.528 c -3e-5,-1.79197 -0.41603,-2.97597 -1.248,-3.552 -0.83203,-0.60797 -2.11203,-0.91197 -3.84,-0.912 l -8.688,0 0,9.12 8.688,0 c 1.69597,2e-5 2.95997,-0.30398 3.792,-0.912 0.86397,-0.60798 1.29597,-1.85598 1.296,-3.744"
           style=""
           id="path3143" />
      </g>
    </g>
    <g
       id="apr"
       transform="matrix(2.0000002,0,0,2.0000002,69.082824,-1231.0713)">
      <rect
         style="fill:#000000;fill-opacity:1;stroke:none"
         id="rect3833"
         width="140"
         height="60"
         x="415.45856"
         y="961.71667" />
      <g
         style="font-size:48px;font-style:normal;font-variant:normal;font-weight:bold;font-stretch:normal;text-align:start;line-height:125%;writing-mode:lr-tb;text-anchor:start;fill:#ffffff;fill-opacity:1;stroke:none;font-family:FreeSans;-inkscape-font-specification:FreeSans Bold"
         id="text3654">
        <path
           d="m 459.25955,1002.1566 -13.104,0 -2.352,7.056 -7.344,0 12.432,-34.99201 7.968,0 12.096,34.99201 -7.392,0 -2.304,-7.056 m -1.968,-6.00001 -4.56,-13.68 -4.56,13.68 9.12,0"
           style=""
           id="path3132" />
        <path
           d="m 480.74705,996.73259 0,12.48001 -7.2,0 0,-34.99201 15.456,0 c 3.64798,3e-5 6.43197,0.92803 8.352,2.784 1.95197,1.85603 2.92797,4.54402 2.928,8.064 -3e-5,3.55202 -0.96003,6.38401 -2.88,8.496 -1.92003,2.11201 -4.48003,3.16801 -7.68,3.168 l -8.976,0 m 0,-6 6.72,0 c 3.74398,1e-5 5.61597,-1.74398 5.616,-5.232 -3e-5,-1.79198 -0.46402,-3.11998 -1.392,-3.984 -0.89602,-0.86398 -2.30402,-1.29598 -4.224,-1.296 l -6.72,0 0,10.512"
           style=""
           id="path3134" />
        <path
           d="m 525.62555,1003.2126 c -3e-5,-0.96 0.016,-1.712 0.048,-2.256 0.032,-0.544 0.048,-1.02401 0.048,-1.44001 -3e-5,-1.47199 -0.35203,-2.52799 -1.056,-3.168 -0.70402,-0.67199 -1.84002,-1.00799 -3.408,-1.008 l -8.256,0 0,13.87201 -7.2,0 0,-34.99201 18.768,0 c 1.79197,3e-5 3.32797,0.30403 4.608,0.912 1.31197,0.60803 2.28797,1.40803 2.928,2.4 0.67197,0.99203 1.15197,2.00003 1.44,3.024 0.28797,0.99202 0.43197,2.03202 0.432,3.12 -3e-5,4.22402 -1.96803,7.10401 -5.904,8.64 0.86397,0.35201 1.50397,0.64001 1.92,0.864 0.41597,0.19201 0.83197,0.52801 1.248,1.008 0.44797,0.48001 0.73597,0.91201 0.864,1.296 0.15997,0.38401 0.30397,1.08801 0.432,2.112 0.15997,1.02401 0.25597,2.03201 0.288,3.02401 0.032,0.992 0.064,2.464 0.096,4.416 -3e-5,1.344 0.51197,2.304 1.536,2.88 l 0,1.296 -7.728,0 c -0.44803,-0.832 -0.75203,-1.632 -0.912,-2.4 -0.12803,-0.768 -0.19203,-1.968 -0.192,-3.6 m 1.152,-18.52801 c -3e-5,-1.79198 -0.41603,-2.97598 -1.248,-3.552 -0.83202,-0.60798 -2.11202,-0.91198 -3.84,-0.912 l -8.688,0 0,9.12 8.688,0 c 1.69598,2e-5 2.95998,-0.30398 3.792,-0.912 0.86397,-0.60798 1.29597,-1.85598 1.296,-3.744"
           style=""
           id="path3136" />
      </g>
    </g>
    <g
       id="may"
       transform="matrix(2.0000002,0,0,2.0000002,340.01842,-1382.147)">
      <rect
         style="fill:#000000;fill-opacity:1;stroke:none"
         id="rect3835"
         width="140"
         height="60"
         x="419.99081"
         y="1037.2545" />
      <g
         style="font-size:48px;font-style:normal;font-variant:normal;font-weight:bold;font-stretch:normal;text-align:start;line-height:125%;writing-mode:lr-tb;text-anchor:start;fill:#ffffff;fill-opacity:1;stroke:none;font-family:FreeSans;-inkscape-font-specification:FreeSans Bold"
         id="text3658">
        <path
           d="m 447.26857,1057.4865 0,27.264 -7.2,0 0,-34.992 10.752,0 6.336,27.84 6.144,-27.84 10.848,0 0,34.992 -7.2,0 0,-27.264 -6.192,27.264 -7.2,0 -6.288,-27.264"
           style=""
           id="path3125" />
        <path
           d="m 500.97982,1077.6945 -13.104,0 -2.352,7.056 -7.344,0 12.432,-34.992 7.968,0 12.096,34.992 -7.392,0 -2.304,-7.056 m -1.968,-6 -4.56,-13.68 -4.56,13.68 9.12,0"
           style=""
           id="path3127" />
        <path
           d="m 528.82507,1071.7905 0,12.96 -7.2,0 0,-12.96 -11.616,-22.032 8.016,0 7.152,15.456 6.672,-15.456 8.064,0 -11.088,22.032"
           style=""
           id="path3129" />
      </g>
    </g>
    <g
       id="jun"
       transform="matrix(2.0000002,0,0,2.0000002,623.03992,-1515.0938)">
      <rect
         style="fill:#000000;fill-opacity:1;stroke:none"
         id="rect3837"
         width="140"
         height="60"
         x="418.48004"
         y="1103.7279" />
      <g
         style="font-size:48px;font-style:normal;font-variant:normal;font-weight:bold;font-stretch:normal;text-align:start;line-height:125%;writing-mode:lr-tb;text-anchor:start;fill:#ffffff;fill-opacity:1;stroke:none;font-family:FreeSans;-inkscape-font-specification:FreeSans Bold"
         id="text3662">
        <path
           d="m 451.18206,1151.7759 c -1.31201,0 -2.57601,-0.16 -3.792,-0.48 -1.18401,-0.32 -2.33601,-0.848 -3.456,-1.584 -1.12,-0.768 -2.016,-1.872 -2.688,-3.312 -0.672,-1.472 -1.008,-3.216 -1.008,-5.232 l 0,-3.456 7.2,0 0,3.36 c -1e-5,1.6 0.30399,2.768 0.912,3.504 0.60799,0.704 1.59999,1.056 2.976,1.056 1.24799,0 2.20799,-0.352 2.88,-1.056 0.67198,-0.704 1.00798,-1.712 1.008,-3.024 l 0,-25.872 7.2,0 0,25.872 c -2e-5,3.264 -0.97602,5.792 -2.928,7.584 -1.95202,1.76 -4.72002,2.64 -8.304,2.64"
           style=""
           id="path3118" />
        <path
           d="m 487.02081,1151.4399 c -1.18402,0.224 -2.41602,0.336 -3.696,0.336 -1.28002,0 -2.52802,-0.112 -3.744,-0.336 -1.18401,-0.224 -2.41601,-0.624 -3.696,-1.2 -1.24801,-0.576 -2.33601,-1.312 -3.264,-2.208 -0.92801,-0.896 -1.69601,-2.08 -2.304,-3.552 -0.576,-1.504 -0.864,-3.2 -0.864,-5.088 l 0,-23.712 7.2,0 0,23.712 c -10e-6,4.16 2.22399,6.24 6.672,6.24 4.44798,0 6.67198,-2.08 6.672,-6.24 l 0,-23.712 7.2,0 0,23.712 c -3e-5,1.888 -0.30403,3.584 -0.912,5.088 -0.57603,1.472 -1.32803,2.656 -2.256,3.552 -0.92803,0.896 -2.03203,1.632 -3.312,2.208 -1.24802,0.576 -2.48002,0.976 -3.696,1.2"
           style=""
           id="path3120" />
        <path
           d="m 525.02031,1150.6719 -14.064,-24.192 0,24.192 -7.2,0 0,-34.992 7.392,0 13.872,23.808 0,-23.808 7.2,0 0,34.992 -7.2,0"
           style=""
           id="path3122" />
      </g>
    </g>
    <g
       id="jul"
       transform="matrix(2.0000002,0,0,2.0000002,78.147424,-1600.5569)">
      <rect
         style="fill:#000000;fill-opacity:1;stroke:none"
         id="rect3839"
         width="140"
         height="60"
         x="410.92627"
         y="1206.4595" />
      <g
         style="font-size:48px;font-style:normal;font-variant:normal;font-weight:bold;font-stretch:normal;text-align:start;line-height:125%;writing-mode:lr-tb;text-anchor:start;fill:#ffffff;fill-opacity:1;stroke:none;font-family:FreeSans;-inkscape-font-specification:FreeSans Bold"
         id="text3666">
        <path
           d="m 447.84716,1254.5074 c -1.31201,0 -2.57601,-0.16 -3.792,-0.48 -1.18401,-0.32 -2.33601,-0.848 -3.456,-1.584 -1.12,-0.768 -2.016,-1.872 -2.688,-3.312 -0.672,-1.472 -1.008,-3.216 -1.008,-5.232 l 0,-3.456 7.2,0 0,3.36 c -10e-6,1.6001 0.30399,2.768 0.912,3.504 0.60799,0.704 1.59999,1.056 2.976,1.056 1.24799,0 2.20799,-0.352 2.88,-1.056 0.67198,-0.704 1.00798,-1.7119 1.008,-3.024 l 0,-25.872 7.2,0 0,25.872 c -2e-5,3.264 -0.97602,5.792 -2.928,7.584 -1.95202,1.76 -4.72002,2.64 -8.304,2.64"
           style=""
           id="path3111" />
        <path
           d="m 483.68591,1254.1714 c -1.18402,0.224 -2.41602,0.336 -3.696,0.336 -1.28002,0 -2.52802,-0.112 -3.744,-0.336 -1.18401,-0.224 -2.41601,-0.624 -3.696,-1.2 -1.24801,-0.576 -2.33601,-1.312 -3.264,-2.208 -0.92801,-0.896 -1.69601,-2.08 -2.304,-3.552 -0.576,-1.5039 -0.864,-3.1999 -0.864,-5.088 l 0,-23.712 7.2,0 0,23.712 c -10e-6,4.16 2.22399,6.24 6.672,6.24 4.44798,0 6.67198,-2.08 6.672,-6.24 l 0,-23.712 7.2,0 0,23.712 c -3e-5,1.8881 -0.30403,3.5841 -0.912,5.088 -0.57603,1.472 -1.32803,2.656 -2.256,3.552 -0.92803,0.896 -2.03203,1.632 -3.312,2.208 -1.24802,0.576 -2.48002,0.976 -3.696,1.2"
           style=""
           id="path3113" />
        <path
           d="m 508.19741,1218.4114 0,28.992 16.752,0 0,6 -23.952,0 0,-34.992 7.2,0"
           style=""
           id="path3115" />
      </g>
    </g>
    <g
       id="aug"
       transform="matrix(2.0000002,0,0,2.0000002,346.06142,-1769.7618)">
      <rect
         style="fill:#000000;fill-opacity:1;stroke:none"
         id="rect3841"
         width="140"
         height="60"
         x="416.9693"
         y="1291.0619" />
      <g
         style="font-size:48px;font-style:normal;font-variant:normal;font-weight:bold;font-stretch:normal;text-align:start;line-height:125%;writing-mode:lr-tb;text-anchor:start;fill:#ffffff;fill-opacity:1;stroke:none;font-family:FreeSans;-inkscape-font-specification:FreeSans Bold"
         id="text3670">
        <path
           d="m 458.64181,1331.2379 -13.104,0 -2.352,7.056 -7.344,0 12.432,-34.992 7.968,0 12.096,34.992 -7.392,0 -2.304,-7.056 m -1.968,-6 -4.56,-13.68 -4.56,13.68 9.12,0"
           style=""
           id="path3104" />
        <path
           d="m 490.49731,1339.0619 c -1.18402,0.224 -2.41602,0.336 -3.696,0.336 -1.28002,0 -2.52801,-0.112 -3.744,-0.336 -1.18401,-0.224 -2.41601,-0.624 -3.696,-1.2 -1.24801,-0.576 -2.33601,-1.312 -3.264,-2.208 -0.928,-0.896 -1.696,-2.0799 -2.304,-3.552 -0.576,-1.5039 -0.864,-3.1999 -0.864,-5.088 l 0,-23.712 7.2,0 0,23.712 c -10e-6,4.1601 2.22399,6.2401 6.672,6.24 4.44798,10e-5 6.67198,-2.0799 6.672,-6.24 l 0,-23.712 7.2,0 0,23.712 c -3e-5,1.8881 -0.30403,3.5841 -0.912,5.088 -0.57603,1.4721 -1.32803,2.656 -2.256,3.552 -0.92803,0.896 -2.03203,1.632 -3.312,2.208 -1.24802,0.576 -2.48002,0.976 -3.696,1.2"
           style=""
           id="path3106" />
        <path
           d="m 531.32881,1314.4859 c -1.28003,-3.7439 -4.06402,-5.6159 -8.352,-5.616 -3.04001,10e-5 -5.44001,1.0721 -7.2,3.216 -1.72801,2.1441 -2.59201,5.1041 -2.592,8.88 -10e-6,3.5841 0.92799,6.5281 2.784,8.832 1.88799,2.3041 4.28798,3.4561 7.2,3.456 0.44798,10e-5 0.95998,-0.048 1.536,-0.144 0.60798,-0.1279 1.32798,-0.3519 2.16,-0.672 0.83198,-0.3519 1.59998,-0.7999 2.304,-1.344 0.70398,-0.5439 1.32797,-1.2959 1.872,-2.256 0.54397,-0.9919 0.87997,-2.1119 1.008,-3.36 l -7.968,0 0,-6 14.016,0 0,18.912 -4.32,0 -0.864,-4.608 c -1.34403,1.952 -2.84803,3.376 -4.512,4.272 -1.66402,0.896 -3.68002,1.344 -6.048,1.344 -4.73601,0 -8.65601,-1.728 -11.76,-5.184 -3.072,-3.4559 -4.608,-7.8399 -4.608,-13.152 0,-5.4399 1.568,-9.8559 4.704,-13.248 3.13599,-3.3919 7.21599,-5.0879 12.24,-5.088 4.22398,1e-4 7.69597,1.0561 10.416,3.168 2.71997,2.1121 4.30397,4.9761 4.752,8.592 l -6.768,0"
           style=""
           id="path3108" />
      </g>
    </g>
    <g
       id="sep"
       transform="matrix(2.0000002,0,0,2.0000002,635.12602,-1914.7949)">
      <rect
         style="fill:#000000;fill-opacity:1;stroke:none"
         id="rect3843"
         width="140"
         height="60"
         x="412.43701"
         y="1363.5784" />
      <g
         style="font-size:48px;font-style:normal;font-variant:normal;font-weight:bold;font-stretch:normal;text-align:start;line-height:125%;writing-mode:lr-tb;text-anchor:start;fill:#ffffff;fill-opacity:1;stroke:none;font-family:FreeSans;-inkscape-font-specification:FreeSans Bold"
         id="text3674">
        <path
           d="m 463.55052,1386.4744 -6.72,0 c -0.25602,-3.6479 -2.70402,-5.4719 -7.344,-5.472 -1.85601,10e-5 -3.32801,0.4001 -4.416,1.2 -1.08801,0.7681 -1.63201,1.8081 -1.632,3.12 -10e-6,1.28 0.46399,2.24 1.392,2.88 0.92799,0.608 2.67199,1.168 5.232,1.68 l 5.472,1.056 c 3.23198,0.64 5.58397,1.728 7.056,3.264 1.47197,1.504 2.20797,3.632 2.208,6.384 -3e-5,3.552 -1.26403,6.336 -3.792,8.352 -2.52802,1.984 -6.04802,2.976 -10.56,2.976 -4.48001,0 -7.96801,-0.992 -10.464,-2.976 -2.464,-1.984 -3.808,-4.848 -4.032,-8.592 l 7.008,0 c 0.12799,1.888 0.86399,3.328 2.208,4.32 1.34399,0.992 3.23199,1.488 5.664,1.488 2.17598,0 3.88798,-0.416 5.136,-1.248 1.27998,-0.832 1.91998,-1.984 1.92,-3.456 -2e-5,-1.408 -0.49602,-2.496 -1.488,-3.264 -0.99202,-0.768 -2.68802,-1.376 -5.088,-1.824 l -4.896,-0.96 c -3.55201,-0.672 -6.08001,-1.728 -7.584,-3.168 -1.504,-1.44 -2.256,-3.52 -2.256,-6.24 0,-3.4239 1.152,-6.0639 3.456,-7.92 2.33599,-1.8879 5.59999,-2.8319 9.792,-2.832 1.21598,10e-5 2.38398,0.08 3.504,0.24 1.15198,0.1601 2.36798,0.4961 3.648,1.008 1.27998,0.4801 2.38398,1.1201 3.312,1.92 0.92797,0.7681 1.69597,1.8561 2.304,3.264 0.63997,1.3761 0.95997,2.9761 0.96,4.8"
           style=""
           id="path3097" />
        <path
           d="m 477.46902,1395.7384 0,9.072 18.96,0 0,6 -26.16,0 0,-34.992 25.296,0 0,6 -18.096,0 0,7.92 16.752,0 0,6 -16.752,0"
           style=""
           id="path3099" />
        <path
           d="m 509.38752,1398.3304 0,12.48 -7.2,0 0,-34.992 15.456,0 c 3.64798,10e-5 6.43197,0.9281 8.352,2.784 1.95197,1.8561 2.92797,4.5441 2.928,8.064 -3e-5,3.552 -0.96003,6.384 -2.88,8.496 -1.92003,2.112 -4.48002,3.168 -7.68,3.168 l -8.976,0 m 0,-6 6.72,0 c 3.74398,0 5.61598,-1.744 5.616,-5.232 -2e-5,-1.7919 -0.46402,-3.1199 -1.392,-3.984 -0.89602,-0.8639 -2.30402,-1.2959 -4.224,-1.296 l -6.72,0 0,10.512"
           style=""
           id="path3101" />
      </g>
    </g>
    <g
       id="oct"
       transform="matrix(2.0000002,0,0,2.0000002,72.104424,-1970.0427)">
      <rect
         style="fill:#000000;fill-opacity:1;stroke:none"
         id="rect3845"
         width="140"
         height="60"
         x="413.94778"
         y="1451.2023" />
      <g
         style="font-size:48px;font-style:normal;font-variant:normal;font-weight:bold;font-stretch:normal;text-align:start;line-height:125%;writing-mode:lr-tb;text-anchor:start;fill:#ffffff;fill-opacity:1;stroke:none;font-family:FreeSans;-inkscape-font-specification:FreeSans Bold"
         id="text3678">
        <path
           d="m 440.10127,1494.4023 c -3.072,-3.424 -4.608,-7.824 -4.608,-13.2 0,-5.376 1.536,-9.7759 4.608,-13.2 3.10399,-3.4239 7.16799,-5.1359 12.192,-5.136 5.05598,1e-4 9.13597,1.7121 12.24,5.136 3.10397,3.3921 4.65597,7.872 4.656,13.44 -3e-5,5.184 -1.53603,9.504 -4.608,12.96 -3.04003,3.424 -7.12002,5.136 -12.24,5.136 -5.08801,0 -9.16801,-1.712 -12.24,-5.136 m 12.24,-25.392 c -2.91201,10e-5 -5.24801,1.1201 -7.008,3.36 -1.76001,2.2081 -2.64001,5.152 -2.64,8.832 -10e-6,3.68 0.87999,6.64 2.64,8.88 1.75999,2.208 4.09599,3.312 7.008,3.312 2.87998,0 5.19998,-1.104 6.96,-3.312 1.79198,-2.208 2.68797,-5.104 2.688,-8.688 -3e-5,-3.776 -0.88002,-6.784 -2.64,-9.024 -1.72802,-2.2399 -4.06402,-3.3599 -7.008,-3.36"
           style=""
           id="path3090" />
        <path
           d="m 496.75777,1475.2983 c -0.89602,-4.1919 -3.39202,-6.2879 -7.488,-6.288 -2.84801,10e-5 -5.07201,1.0881 -6.672,3.264 -1.60001,2.1761 -2.40001,5.2 -2.4,9.072 -10e-6,3.808 0.76799,6.784 2.304,8.928 1.56799,2.144 3.74399,3.216 6.528,3.216 2.23998,0 4.03198,-0.608 5.376,-1.824 1.34398,-1.216 2.12798,-2.944 2.352,-5.184 l 7.008,0 c -0.22403,4 -1.68003,7.184 -4.368,9.552 -2.68802,2.336 -6.20802,3.504 -10.56,3.504 -4.86401,0 -8.72001,-1.632 -11.568,-4.896 -2.848,-3.296 -4.272,-7.76 -4.272,-13.392 0,-5.664 1.44,-10.1439 4.32,-13.44 2.87999,-3.2959 6.78399,-4.9439 11.712,-4.944 4.12798,1e-4 7.50398,1.1041 10.128,3.312 2.65597,2.2081 4.14397,5.2481 4.464,9.12 l -6.864,0"
           style=""
           id="path3092" />
        <path
           d="m 522.17827,1469.4423 0,28.992 -7.2,0 0,-28.992 -10.608,0 0,-6 28.032,0 0,6 -10.224,0"
           style=""
           id="path3094" />
      </g>
    </g>
    <g
       id="nov"
       transform="matrix(2.0000002,0,0,2.0000002,346.06142,-2142.2693)">
      <rect
         style="fill:#000000;fill-opacity:1;stroke:none"
         id="rect3847"
         width="140"
         height="60"
         x="416.9693"
         y="1537.3156" />
      <g
         style="font-size:48px;font-style:normal;font-variant:normal;font-weight:bold;font-stretch:normal;text-align:start;line-height:125%;writing-mode:lr-tb;text-anchor:start;fill:#ffffff;fill-opacity:1;stroke:none;font-family:FreeSans;-inkscape-font-specification:FreeSans Bold"
         id="text3682">
        <path
           d="m 459.2748,1584.5476 -14.064,-24.192 0,24.192 -7.2,0 0,-34.992 7.392,0 13.872,23.808 0,-23.808 7.2,0 0,34.992 -7.2,0"
           style=""
           id="path3083" />
        <path
           d="m 475.9623,1580.5156 c -3.07201,-3.424 -4.60801,-7.824 -4.608,-13.2 -1e-5,-5.376 1.53599,-9.776 4.608,-13.2 3.10399,-3.424 7.16798,-5.136 12.192,-5.136 5.05597,0 9.13597,1.712 12.24,5.136 3.10396,3.392 4.65596,7.872 4.656,13.44 -4e-5,5.184 -1.53604,9.504 -4.608,12.96 -3.04003,3.424 -7.12003,5.136 -12.24,5.136 -5.08802,0 -9.16801,-1.712 -12.24,-5.136 m 12.24,-25.392 c -2.91202,0 -5.24802,1.12 -7.008,3.36 -1.76001,2.208 -2.64001,5.152 -2.64,8.832 -1e-5,3.68 0.87999,6.64 2.64,8.88 1.75998,2.208 4.09598,3.312 7.008,3.312 2.87997,0 5.19997,-1.104 6.96,-3.312 1.79197,-2.208 2.68797,-5.104 2.688,-8.688 -3e-5,-3.776 -0.88003,-6.784 -2.64,-9.024 -1.72803,-2.24 -4.06403,-3.36 -7.008,-3.36"
           style=""
           id="path3085" />
        <path
           d="m 523.9278,1584.5476 -6.096,0 -11.808,-34.992 7.248,0 7.776,26.352 7.632,-26.352 7.248,0 -12,34.992"
           style=""
           id="path3087" />
      </g>
    </g>
    <g
       id="dec"
       transform="matrix(2.0000002,0,0,2.0000002,632.10442,-2263.1299)">
      <rect
         style="fill:#000000;fill-opacity:1;stroke:none"
         id="rect3849"
         width="140"
         height="60"
         x="413.94778"
         y="1597.7458" />
      <g
         style="font-size:48px;font-style:normal;font-variant:normal;font-weight:bold;font-stretch:normal;text-align:start;line-height:125%;writing-mode:lr-tb;text-anchor:start;fill:#ffffff;fill-opacity:1;stroke:none;font-family:FreeSans;-inkscape-font-specification:FreeSans Bold"
         id="text3686">
        <path
           d="m 436.91829,1644.9779 0,-34.992 13.68,0 c 2.68798,0 4.89598,0.32 6.624,0.96 1.75997,0.64 3.23197,1.664 4.416,3.072 2.84797,3.392 4.27197,7.872 4.272,13.44 -3e-5,5.632 -1.42403,10.112 -4.272,13.44 -2.27203,2.72 -5.95202,4.08 -11.04,4.08 l -13.68,0 m 7.2,-6 6.48,0 c 5.40798,0 8.11197,-3.824 8.112,-11.472 -3e-5,-7.68 -2.70402,-11.52 -8.112,-11.52 l -6.48,0 0,22.992"
           style=""
           id="path3076" />
        <path
           d="m 478.90179,1629.9059 0,9.072 18.96,0 0,6 -26.16,0 0,-34.992 25.296,0 0,6 -18.096,0 0,7.92 16.752,0 0,6 -16.752,0"
           style=""
           id="path3078" />
        <path
           d="m 523.96929,1621.8419 c -0.89602,-4.192 -3.39202,-6.288 -7.488,-6.288 -2.84802,0 -5.07201,1.088 -6.672,3.264 -1.60001,2.176 -2.40001,5.2 -2.4,9.072 -10e-6,3.808 0.76799,6.784 2.304,8.928 1.56799,2.144 3.74398,3.216 6.528,3.216 2.23998,0 4.03198,-0.608 5.376,-1.824 1.34398,-1.216 2.12797,-2.944 2.352,-5.184 l 7.008,0 c -0.22403,4 -1.68003,7.184 -4.368,9.552 -2.68803,2.336 -6.20802,3.504 -10.56,3.504 -4.86401,0 -8.72001,-1.632 -11.568,-4.896 -2.848,-3.296 -4.272,-7.76 -4.272,-13.392 0,-5.664 1.44,-10.144 4.32,-13.44 2.87999,-3.296 6.78399,-4.944 11.712,-4.944 4.12798,0 7.50397,1.104 10.128,3.312 2.65597,2.208 4.14397,5.248 4.464,9.12 l -6.864,0"
           style=""
           id="path3080" />
      </g>
    </g>
    <g
       id="0"
       transform="matrix(2.0000002,0,0,2.0000002,683.25512,-408.36216)"
       inkscape:label="#0">
      <rect
         y="340.36218"
         x="108.37243"
         height="60"
         width="40"
         id="rect3692"
         style="fill:#000000;fill-opacity:1;stroke:none" />
      <g
         style="font-size:48px;font-style:normal;font-variant:normal;font-weight:bold;font-stretch:normal;text-align:start;line-height:125%;writing-mode:lr-tb;text-anchor:start;fill:#ffffff;fill-opacity:1;stroke:none;font-family:FreeSans;-inkscape-font-specification:FreeSans Bold"
         id="text3592">
        <path
           d="m 134.13243,386.94619 c -1.56801,0.896 -3.48801,1.344 -5.76,1.344 -2.27201,0 -4.19201,-0.448 -5.76,-1.344 -1.568,-0.928 -2.784,-2.24 -3.648,-3.936 -0.832,-1.696 -1.424,-3.55199 -1.776,-5.568 -0.352,-2.04799 -0.528,-4.39999 -0.528,-7.056 0,-6.49598 0.96,-11.02397 2.88,-13.584 2.112,-2.91197 5.05599,-4.36797 8.832,-4.368 4.12799,3e-5 7.23198,1.68003 9.312,5.04 1.59998,2.59202 2.39998,6.96002 2.4,13.104 -2e-5,2.56001 -0.17602,4.84801 -0.528,6.864 -0.35202,1.98401 -0.94402,3.84 -1.776,5.568 -0.83202,1.696 -2.04802,3.008 -3.648,3.936 m -0.768,-16.512 c -2e-5,-3.42398 -0.22402,-6.07998 -0.672,-7.968 -0.41601,-1.88798 -0.96001,-3.11997 -1.632,-3.696 -0.67201,-0.60797 -1.56801,-0.91197 -2.688,-0.912 -1.79201,3e-5 -3.07201,0.91203 -3.84,2.736 -0.76801,1.79202 -1.15201,5.04002 -1.152,9.744 -1e-5,3.26401 0.20799,5.82401 0.624,7.68 0.41599,1.82401 0.95999,3.04 1.632,3.648 0.70399,0.576 1.61599,0.864 2.736,0.864 1.95199,0 3.32799,-1.04 4.128,-3.12 0.57598,-1.59999 0.86398,-4.59199 0.864,-8.976"
           style=""
           id="path3205" />
      </g>
    </g>
    <g
       id="am"
       transform="matrix(2.0000002,0,0,2.0000002,1354.54,-675.98656)">
      <rect
         y="474.17438"
         x="-27.269936"
         height="60"
         width="140"
         id="rect3762"
         style="fill:#000000;fill-opacity:1;stroke:none" />
      <g
         style="font-size:48px;font-style:normal;font-variant:normal;font-weight:bold;font-stretch:normal;text-align:start;line-height:125%;writing-mode:lr-tb;text-anchor:start;fill:#ffffff;fill-opacity:1;stroke:none;font-family:FreeSans;-inkscape-font-specification:FreeSans Bold"
         id="text3632">
        <path
           d="m 17.002439,514.61435 -13.1039998,0 -2.352,7.056 -7.344,0 12.432,-34.992 7.9679998,0 12.096,34.992 -7.392,0 -2.304,-7.056 m -1.968,-6 -4.56,-13.68 -4.5599998,13.68 9.1199998,0"
           style=""
           id="path3184" />
        <path
           d="m 37.913939,514.66235 0,7.008 -7.2,0 0,-7.008 7.2,0"
           style=""
           id="path3186" />
        <path
           d="m 51.322439,494.40635 0,27.264 -7.2,0 0,-34.992 10.752,0 6.336,27.84 6.144,-27.84 10.848,0 0,34.992 -7.2,0 0,-27.264 -6.192,27.264 -7.2,0 -6.288,-27.264"
           style=""
           id="path3188" />
        <path
           d="m 91.257689,514.66235 0,7.008 -7.2,0 0,-7.008 7.2,0"
           style=""
           id="path3190" />
      </g>
    </g>
    <g
       id="feb"
       transform="matrix(2.0000002,0,0,2.0000002,346.06142,-1006.6184)">
      <rect
         style="fill:#000000;fill-opacity:1;stroke:none"
         id="rect3829"
         width="140"
         height="60"
         x="416.9693"
         y="789.49023" />
      <g
         style="font-size:48px;font-style:normal;font-variant:normal;font-weight:bold;font-stretch:normal;text-align:start;line-height:125%;writing-mode:lr-tb;text-anchor:start;fill:#ffffff;fill-opacity:1;stroke:none;font-family:FreeSans;-inkscape-font-specification:FreeSans Bold"
         id="text3644">
        <path
           d="m 449.25816,821.91421 0,15.072 -7.2,0 0,-34.992 24.576,0 0,6 -17.376,0 0,7.92 15.312,0 0,6 -15.312,0"
           style=""
           id="path3146" />
        <path
           d="m 478.84191,821.91421 0,9.072 18.96,0 0,6 -26.16,0 0,-34.992 25.296,0 0,6 -18.096,0 0,7.92 16.752,0 0,6 -16.752,0"
           style=""
           id="path3148" />
        <path
           d="m 531.88041,826.90621 c -3e-5,1.152 -0.19203,2.272 -0.576,3.36 -0.38403,1.088 -1.00803,2.16 -1.872,3.216 -0.83202,1.056 -2.09602,1.904 -3.792,2.544 -1.69602,0.64 -3.71202,0.96 -6.048,0.96 l -15.744,0 0,-34.992 15.6,0 c 2.17598,3e-5 4.04798,0.32003 5.616,0.96 1.59998,0.64003 2.78398,1.47203 3.552,2.496 0.79998,0.99203 1.37597,1.96803 1.728,2.928 0.35197,0.96002 0.52797,1.90402 0.528,2.832 -3e-5,1.50402 -0.36803,2.80002 -1.104,3.888 -0.73602,1.08802 -1.96802,2.19202 -3.696,3.312 3.87197,2.27201 5.80797,5.10401 5.808,8.496 m -20.832,-18.912 0,7.92 7.824,0 c 3.39198,2e-5 5.08798,-1.31198 5.088,-3.936 -2e-5,-2.65598 -1.69602,-3.98397 -5.088,-3.984 l -7.824,0 m 0,13.92 0,9.072 8.592,0 c 3.55198,0 5.32798,-1.504 5.328,-4.512 -2e-5,-3.03999 -1.77602,-4.55999 -5.328,-4.56 l -8.592,0"
           style=""
           id="path3150" />
      </g>
    </g>
    <g
       id="jan"
       transform="matrix(2.0000002,0,0,2.0000002,60.018324,-849.49946)"
       inkscape:label="#jan">
      <rect
         style="fill:#000000;fill-opacity:1;stroke:none"
         id="rect3827"
         width="140"
         height="60"
         x="419.99081"
         y="710.93079" />
      <g
         style="font-size:48px;font-style:normal;font-variant:normal;font-weight:bold;font-stretch:normal;text-align:start;line-height:125%;writing-mode:lr-tb;text-anchor:start;fill:#ffffff;fill-opacity:1;stroke:none;font-family:FreeSans;-inkscape-font-specification:FreeSans Bold"
         id="text3640">
        <path
           d="m 455.64681,758.97876 c -1.31201,-10e-6 -2.57601,-0.16001 -3.792,-0.48 -1.18401,-0.32 -2.336,-0.848 -3.456,-1.584 -1.12,-0.768 -2.016,-1.872 -2.688,-3.312 -0.672,-1.472 -1.008,-3.216 -1.008,-5.232 l 0,-3.456 7.2,0 0,3.36 c -10e-6,1.6 0.30399,2.768 0.912,3.504 0.60799,0.704 1.59999,1.056 2.976,1.056 1.24799,0 2.20799,-0.352 2.88,-1.056 0.67199,-0.704 1.00799,-1.712 1.008,-3.024 l 0,-25.872 7.2,0 0,25.872 c -2e-5,3.264 -0.97602,5.792 -2.928,7.584 -1.95202,1.76 -4.72001,2.63999 -8.304,2.64"
           style=""
           id="path3153" />
        <path
           d="m 492.91131,750.81876 -13.104,0 -2.352,7.056 -7.344,0 12.432,-34.992 7.968,0 12.096,34.992 -7.392,0 -2.304,-7.056 m -1.968,-6 -4.56,-13.68 -4.56,13.68 9.12,0"
           style=""
           id="path3155" />
        <path
           d="m 528.07881,757.87476 -14.064,-24.192 0,24.192 -7.2,0 0,-34.992 7.392,0 13.872,23.808 0,-23.808 7.2,0 0,34.992 -7.2,0"
           style=""
           id="path3157" />
      </g>
    </g>
    <g
       id="sun"
       transform="matrix(2.0000002,0,0,2.0000002,-266.30548,-1425.3273)">
      <rect
         y="698.84467"
         x="583.15271"
         height="60"
         width="140"
         id="rect3825"
         style="fill:#000000;fill-opacity:1;stroke:none" />
      <g
         style="font-size:48px;font-style:normal;font-variant:normal;font-weight:bold;font-stretch:normal;text-align:start;line-height:125%;writing-mode:lr-tb;text-anchor:start;fill:#ffffff;fill-opacity:1;stroke:none;font-family:FreeSans;-inkscape-font-specification:FreeSans Bold"
         id="text3776">
        <path
           d="m 632.28169,721.74066 -6.72,0 c -0.25602,-3.64797 -2.70402,-5.47197 -7.344,-5.472 -1.85601,3e-5 -3.32801,0.40003 -4.416,1.2 -1.08801,0.76803 -1.63201,1.80803 -1.632,3.12 -10e-6,1.28002 0.46399,2.24002 1.392,2.88 0.92799,0.60802 2.67199,1.16802 5.232,1.68 l 5.472,1.056 c 3.23198,0.64002 5.58397,1.72802 7.056,3.264 1.47197,1.50402 2.20797,3.63201 2.208,6.384 -3e-5,3.55201 -1.26403,6.336 -3.792,8.352 -2.52802,1.984 -6.04802,2.976 -10.56,2.976 -4.48001,0 -7.96801,-0.992 -10.464,-2.976 -2.464,-1.984 -3.808,-4.84799 -4.032,-8.592 l 7.008,0 c 0.12799,1.88801 0.86399,3.32801 2.208,4.32 1.34399,0.99201 3.23199,1.488 5.664,1.488 2.17598,0 3.88798,-0.41599 5.136,-1.248 1.27998,-0.83199 1.91998,-1.98399 1.92,-3.456 -2e-5,-1.40799 -0.49602,-2.49599 -1.488,-3.264 -0.99202,-0.76799 -2.68802,-1.37599 -5.088,-1.824 l -4.896,-0.96 c -3.55201,-0.67198 -6.08001,-1.72798 -7.584,-3.168 -1.504,-1.43998 -2.256,-3.51998 -2.256,-6.24 0,-3.42397 1.152,-6.06397 3.456,-7.92 2.33599,-1.88797 5.59999,-2.83196 9.792,-2.832 1.21598,4e-5 2.38398,0.08 3.504,0.24 1.15198,0.16004 2.36798,0.49603 3.648,1.008 1.27998,0.48003 2.38398,1.12003 3.312,1.92 0.92797,0.76803 1.69597,1.85603 2.304,3.264 0.63997,1.37603 0.95997,2.97603 0.96,4.8"
           id="path3027"
           style="" />
        <path
           d="m 656.42419,746.84466 c -1.18402,0.224 -2.41602,0.336 -3.696,0.336 -1.28002,0 -2.52801,-0.112 -3.744,-0.336 -1.18401,-0.224 -2.41601,-0.624 -3.696,-1.2 -1.24801,-0.576 -2.33601,-1.312 -3.264,-2.208 -0.928,-0.896 -1.696,-2.08 -2.304,-3.552 -0.576,-1.50399 -0.864,-3.19999 -0.864,-5.088 l 0,-23.712 7.2,0 0,23.712 c -10e-6,4.16001 2.22399,6.24001 6.672,6.24 4.44798,10e-6 6.67198,-2.07999 6.672,-6.24 l 0,-23.712 7.2,0 0,23.712 c -3e-5,1.88801 -0.30403,3.58401 -0.912,5.088 -0.57603,1.472 -1.32803,2.656 -2.256,3.552 -0.92803,0.896 -2.03203,1.632 -3.312,2.208 -1.24802,0.576 -2.48002,0.976 -3.696,1.2"
           id="path3029"
           style="" />
        <path
           d="m 694.42369,746.07666 -14.064,-24.192 0,24.192 -7.2,0 0,-34.992 7.392,0 13.872,23.808 0,-23.808 7.2,0 0,34.992 -7.2,0"
           id="path3031"
           style="" />
      </g>
    </g>
    <g
       id="mon"
       transform="matrix(2.0000002,0,0,2.0000002,10.672924,-1600.5752)">
      <rect
         style="fill:#000000;fill-opacity:1;stroke:none"
         id="rect3859"
         width="140"
         height="60"
         x="584.66351"
         y="786.46863" />
      <g
         style="font-size:48px;font-style:normal;font-variant:normal;font-weight:bold;font-stretch:normal;text-align:start;line-height:125%;writing-mode:lr-tb;text-anchor:start;fill:#ffffff;fill-opacity:1;stroke:none;font-family:FreeSans;-inkscape-font-specification:FreeSans Bold"
         id="text3780">
        <path
           d="m 608.91164,806.43662 0,27.264 -7.2,0 0,-34.992 10.752,0 6.336,27.84 6.144,-27.84 10.848,0 0,34.992 -7.2,0 0,-27.264 -6.192,27.264 -7.2,0 -6.288,-27.264"
           style=""
           id="path3062" />
        <path
           d="m 645.10289,829.66862 c -3.072,-3.42399 -4.608,-7.82399 -4.608,-13.2 0,-5.37597 1.536,-9.77597 4.608,-13.2 3.10399,-3.42396 7.16799,-5.13596 12.192,-5.136 5.05598,4e-5 9.13597,1.71204 12.24,5.136 3.10397,3.39203 4.65596,7.87203 4.656,13.44 -4e-5,5.18401 -1.53603,9.50401 -4.608,12.96 -3.04003,3.424 -7.12002,5.136 -12.24,5.136 -5.08801,0 -9.16801,-1.712 -12.24,-5.136 m 12.24,-25.392 c -2.91202,3e-5 -5.24801,1.12003 -7.008,3.36 -1.76001,2.20803 -2.64001,5.15202 -2.64,8.832 -10e-6,3.68002 0.87999,6.64001 2.64,8.88 1.75999,2.20801 4.09598,3.31201 7.008,3.312 2.87998,10e-6 5.19998,-1.10399 6.96,-3.312 1.79197,-2.20799 2.68797,-5.10398 2.688,-8.688 -3e-5,-3.77598 -0.88003,-6.78397 -2.64,-9.024 -1.72802,-2.23997 -4.06402,-3.35997 -7.008,-3.36"
           style=""
           id="path3064" />
        <path
           d="m 700.41539,833.70062 -14.064,-24.192 0,24.192 -7.2,0 0,-34.992 7.392,0 13.872,23.808 0,-23.808 7.2,0 0,34.992 -7.2,0"
           style=""
           id="path3066" />
      </g>
    </g>
    <g
       id="tue"
       transform="matrix(2.0000002,0,0,2.0000002,296.71602,-1821.1458)">
      <rect
         style="fill:#000000;fill-opacity:1;stroke:none"
         id="rect3857"
         width="140"
         height="60"
         x="581.64197"
         y="896.75397" />
      <g
         style="font-size:48px;font-style:normal;font-variant:normal;font-weight:bold;font-stretch:normal;text-align:start;line-height:125%;writing-mode:lr-tb;text-anchor:start;fill:#ffffff;fill-opacity:1;stroke:none;font-family:FreeSans;-inkscape-font-specification:FreeSans Bold"
         id="text3784">
        <path
           d="m 622.79433,914.70594 0,28.992 -7.2,0 0,-28.992 -10.608,0 0,-6 28.032,0 0,6 -10.224,0"
           style=""
           id="path3041" />
        <path
           d="m 654.87408,944.46594 c -1.18402,0.224 -2.41602,0.336 -3.696,0.336 -1.28002,0 -2.52801,-0.112 -3.744,-0.336 -1.18401,-0.224 -2.41601,-0.624 -3.696,-1.2 -1.24801,-0.576 -2.33601,-1.312 -3.264,-2.208 -0.928,-0.896 -1.696,-2.08 -2.304,-3.552 -0.576,-1.504 -0.864,-3.19999 -0.864,-5.088 l 0,-23.712 7.2,0 0,23.712 c -10e-6,4.16 2.22399,6.24 6.672,6.24 4.44798,0 6.67198,-2.08 6.672,-6.24 l 0,-23.712 7.2,0 0,23.712 c -3e-5,1.88801 -0.30403,3.584 -0.912,5.088 -0.57603,1.472 -1.32803,2.656 -2.256,3.552 -0.92803,0.896 -2.03203,1.632 -3.312,2.208 -1.24802,0.576 -2.48002,0.976 -3.696,1.2"
           style=""
           id="path3043" />
        <path
           d="m 679.33758,928.62594 0,9.072 18.96,0 0,6 -26.16,0 0,-34.992 25.296,0 0,6 -18.096,0 0,7.92 16.752,0 0,6 -16.752,0"
           style=""
           id="path3045" />
      </g>
    </g>
    <g
       id="wed"
       transform="matrix(2.0000002,0,0,2.0000002,2268.104,-1659.2008)">
      <rect
         y="815.78143"
         x="-264.05212"
         height="60"
         width="140"
         id="rect3690"
         style="fill:#000000;fill-opacity:1;stroke:none" />
      <g
         style="font-size:48px;font-style:normal;font-variant:normal;font-weight:bold;font-stretch:normal;text-align:start;line-height:125%;writing-mode:lr-tb;text-anchor:start;fill:#ffffff;fill-opacity:1;stroke:none;font-family:FreeSans;-inkscape-font-specification:FreeSans Bold"
         id="text3788">
        <path
           d="m -214.34,863.2774 -6.48,0 -5.856,-27.312 -5.712,27.312 -6.48,0 -9.888,-34.992 7.632,0 5.424,26.208 5.424,-26.208 7.104,0 5.664,26.256 5.232,-26.256 7.632,0 -9.696,34.992"
           style=""
           id="path3034" />
        <path
           d="m -193.10675,848.2054 0,9.072 18.96,0 0,6 -26.16,0 0,-34.992 25.296,0 0,6 -18.096,0 0,7.92 16.752,0 0,6 -16.752,0"
           style=""
           id="path3036" />
        <path
           d="m -168.34025,863.2774 0,-34.992 13.68,0 c 2.68798,4e-5 4.89597,0.32004 6.624,0.96 1.75997,0.64004 3.23197,1.66404 4.416,3.072 2.84796,3.39203 4.27196,7.87203 4.272,13.44 -4e-5,5.63202 -1.42404,10.11201 -4.272,13.44 -2.27203,2.72001 -5.95203,4.08 -11.04,4.08 l -13.68,0 m 7.2,-6 6.48,0 c 5.40797,1e-5 8.11197,-3.82399 8.112,-11.472 -3e-5,-7.67997 -2.70403,-11.51997 -8.112,-11.52 l -6.48,0 0,22.992"
           style=""
           id="path3038" />
      </g>
    </g>
    <g
       id="thu"
       transform="matrix(2.0000002,0,0,2.0000002,-254.21948,-2078.8355)">
      <rect
         style="fill:#000000;fill-opacity:1;stroke:none"
         id="rect3855"
         width="140"
         height="60"
         x="577.10968"
         y="1085.5988" />
      <g
         style="font-size:48px;font-style:normal;font-variant:normal;font-weight:bold;font-stretch:normal;text-align:start;line-height:125%;writing-mode:lr-tb;text-anchor:start;fill:#ffffff;fill-opacity:1;stroke:none;font-family:FreeSans;-inkscape-font-specification:FreeSans Bold"
         id="text3792">
        <path
           d="m 617.54207,1103.5507 0,28.992 -7.2,0 0,-28.992 -10.608,0 0,-6 28.032,0 0,6 -10.224,0"
           style=""
           id="path3069" />
        <path
           d="m 652.74182,1116.6547 -13.872,0 0,15.888 -7.2,0 0,-34.992 7.2,0 0,13.104 13.824,0 0,-13.104 7.248,0 0,34.992 -7.2,0 0,-15.888"
           style=""
           id="path3071" />
        <path
           d="m 684.30932,1133.3107 c -1.18402,0.224 -2.41602,0.336 -3.696,0.336 -1.28001,0 -2.52801,-0.112 -3.744,-0.336 -1.18401,-0.224 -2.41601,-0.624 -3.696,-1.2 -1.24801,-0.576 -2.336,-1.312 -3.264,-2.208 -0.928,-0.896 -1.696,-2.08 -2.304,-3.552 -0.576,-1.504 -0.864,-3.2 -0.864,-5.088 l 0,-23.712 7.2,0 0,23.712 c -10e-6,4.16 2.22399,6.24 6.672,6.24 4.44798,0 6.67198,-2.08 6.672,-6.24 l 0,-23.712 7.2,0 0,23.712 c -3e-5,1.888 -0.30403,3.584 -0.912,5.088 -0.57603,1.472 -1.32803,2.656 -2.256,3.552 -0.92802,0.896 -2.03202,1.632 -3.312,2.208 -1.24802,0.576 -2.48002,0.976 -3.696,1.2"
           style=""
           id="path3073" />
      </g>
    </g>
    <g
       id="fri"
       transform="matrix(2.0000002,0,0,2.0000002,25.780624,-2275.2343)">
      <rect
         style="fill:#000000;fill-opacity:1;stroke:none"
         id="rect3853"
         width="140"
         height="60"
         x="577.10968"
         y="1183.7981" />
      <g
         style="font-size:48px;font-style:normal;font-variant:normal;font-weight:bold;font-stretch:normal;text-align:start;line-height:125%;writing-mode:lr-tb;text-anchor:start;fill:#ffffff;fill-opacity:1;stroke:none;font-family:FreeSans;-inkscape-font-specification:FreeSans Bold"
         id="text3796">
        <path
           d="m 618.95805,1216.2221 0,15.072 -7.2,0 0,-34.992 24.576,0 0,6 -17.376,0 0,7.92 15.312,0 0,6 -15.312,0"
           style=""
           id="path3055" />
        <path
           d="m 661.2138,1225.2941 c -2e-5,-0.96 0.016,-1.712 0.048,-2.256 0.032,-0.544 0.048,-1.024 0.048,-1.44 -2e-5,-1.472 -0.35202,-2.528 -1.056,-3.168 -0.70402,-0.672 -1.84002,-1.008 -3.408,-1.008 l -8.256,0 0,13.872 -7.2,0 0,-34.992 18.768,0 c 1.79198,0 3.32798,0.304 4.608,0.912 1.31198,0.608 2.28798,1.408 2.928,2.4 0.67197,0.992 1.15197,2 1.44,3.024 0.28797,0.992 0.43197,2.032 0.432,3.12 -3e-5,4.224 -1.96803,7.104 -5.904,8.64 0.86398,0.352 1.50398,0.64 1.92,0.864 0.41598,0.192 0.83198,0.528 1.248,1.008 0.44797,0.48 0.73597,0.912 0.864,1.296 0.15997,0.384 0.30397,1.088 0.432,2.112 0.15997,1.024 0.25597,2.032 0.288,3.024 0.032,0.992 0.064,2.464 0.096,4.416 -3e-5,1.344 0.51197,2.304 1.536,2.88 l 0,1.296 -7.728,0 c -0.44802,-0.832 -0.75202,-1.632 -0.912,-2.4 -0.12802,-0.768 -0.19202,-1.968 -0.192,-3.6 m 1.152,-18.528 c -2e-5,-1.792 -0.41602,-2.976 -1.248,-3.552 -0.83202,-0.608 -2.11202,-0.912 -3.84,-0.912 l -8.688,0 0,9.12 8.688,0 c 1.69598,0 2.95998,-0.304 3.792,-0.912 0.86398,-0.608 1.29598,-1.856 1.296,-3.744"
           style=""
           id="path3057" />
        <path
           d="m 682.4613,1196.3021 0,34.992 -7.2,0 0,-34.992 7.2,0"
           style=""
           id="path3059" />
      </g>
    </g>
    <g
       id="sat"
       transform="matrix(2.0000002,0,0,2.0000002,323.90972,-2519.9773)">
      <rect
         style="fill:#000000;fill-opacity:1;stroke:none"
         id="rect3851"
         width="140"
         height="60"
         x="568.0451"
         y="1306.1696" />
      <g
         style="font-size:48px;font-style:normal;font-variant:normal;font-weight:bold;font-stretch:normal;text-align:start;line-height:125%;writing-mode:lr-tb;text-anchor:start;fill:#ffffff;fill-opacity:1;stroke:none;font-family:FreeSans;-inkscape-font-specification:FreeSans Bold"
         id="text3800">
        <path
           d="m 620.32673,1329.0656 -6.72,0 c -0.25602,-3.648 -2.70401,-5.472 -7.344,-5.472 -1.85601,0 -3.32801,0.4 -4.416,1.2 -1.088,0.768 -1.632,1.808 -1.632,3.12 0,1.28 0.464,2.24 1.392,2.88 0.92799,0.608 2.67199,1.168 5.232,1.68 l 5.472,1.056 c 3.23198,0.64 5.58398,1.728 7.056,3.264 1.47198,1.504 2.20797,3.632 2.208,6.384 -3e-5,3.552 -1.26402,6.336 -3.792,8.352 -2.52802,1.984 -6.04802,2.976 -10.56,2.976 -4.48001,0 -7.968,-0.992 -10.464,-2.976 -2.464,-1.984 -3.808,-4.848 -4.032,-8.592 l 7.008,0 c 0.128,1.888 0.864,3.328 2.208,4.32 1.34399,0.992 3.23199,1.488 5.664,1.488 2.17599,0 3.88798,-0.416 5.136,-1.248 1.27998,-0.832 1.91998,-1.984 1.92,-3.456 -2e-5,-1.408 -0.49602,-2.496 -1.488,-3.264 -0.99202,-0.768 -2.68801,-1.376 -5.088,-1.824 l -4.896,-0.96 c -3.552,-0.672 -6.08,-1.728 -7.584,-3.168 -1.504,-1.44 -2.256,-3.52 -2.256,-6.24 0,-3.424 1.152,-6.064 3.456,-7.92 2.336,-1.888 5.59999,-2.832 9.792,-2.832 1.21599,0 2.38399,0.08 3.504,0.24 1.15198,0.16 2.36798,0.496 3.648,1.008 1.27998,0.48 2.38398,1.12 3.312,1.92 0.92798,0.768 1.69598,1.856 2.304,3.264 0.63998,1.376 0.95998,2.976 0.96,4.8"
           style=""
           id="path3048" />
        <path
           d="m 645.89498,1346.3456 -13.104,0 -2.352,7.056 -7.344,0 12.432,-34.992 7.968,0 12.096,34.992 -7.392,0 -2.304,-7.056 m -1.968,-6 -4.56,-13.68 -4.56,13.68 9.12,0"
           style=""
           id="path3050" />
        <path
           d="m 673.13948,1324.4096 0,28.992 -7.2,0 0,-28.992 -10.608,0 0,-6 28.032,0 0,6 -10.224,0"
           style=""
           id="path3052" />
      </g>
    </g>
    <g
       id="panel">
      <rect
         y="252.36218"
         x="0"
         height="800"
         width="800"
         id="rect3882"
         style="fill:#ffffff;fill-opacity:1;stroke:none" />
      <g
         id="g3219">
        <rect
           style="fill:#c9cfe5;fill-opacity:1;stroke:none"
           id="rect3751"
           width="600"
           height="500"
           x="100"
           y="402.36218"
           rx="50" />
        <rect
           style="fill:url(#linearGradient3216);fill-opacity:1;stroke:none"
           id="rect3752"
           width="560"
           height="460"
           x="120"
           y="422.36218"
           rx="30" />
        <rect
           rx="29.47826"
           y="426.63492"
           x="124.86956"
           height="451.45456"
           width="550.26086"
           id="rect3763"
           style="fill:#131419;fill-opacity:0.99215686;stroke:none" />
        <path
           style="fill:#ffffff;fill-opacity:1;stroke:none"
           d="m 108.11243,875.69871 c 0,0 -4.70054,-6.26738 -5.87568,-18.41045 -1.17512,-12.14306 -0.39171,-335.69695 -0.39171,-335.69695 l 0,-72.85838 c 0,0 1.17514,-19.58559 12.92649,-29.77009 11.75135,-10.18451 24.67784,-15.27676 31.72865,-14.88505 7.05081,0.39171 414.0393,0 414.0393,0 0,0 84.21802,-0.39171 94.79423,0 10.57622,0.39171 24.28613,7.83424 32.51208,18.41045 8.22594,10.57622 9.79279,19.58559 9.79279,19.58559 0,0 -6.6591,-15.66847 -17.62703,-23.89442 -10.96792,-8.22594 -15.66847,-9.79279 -25.06955,-10.57621 -9.40108,-0.78343 -128.87316,-0.78343 -128.87316,-0.78343 0,0 -362.72506,-0.78342 -379.56866,0 -16.84361,0.78343 -28.98667,14.88505 -32.51208,17.62703 -3.5254,2.74198 -9.40108,16.84361 -9.79279,22.71928 -0.39171,5.87568 0,396.41227 0.39171,406.98849 0.39171,10.57622 3.52541,21.93586 3.52541,21.54414 z"
           id="path3758" />
        <path
           style="fill:#2e3252;fill-opacity:0.99215686;stroke:none"
           d="m 110.10687,881.95984 c 0,0 6.27215,9.46272 18.72696,14.87786 7.59836,3.30363 16.77933,4.40611 16.77933,4.40611 11.3206,1.82321 338.47856,0.89632 509.16605,0.67608 0,0 18.71325,-2.19914 30.9619,-15.42333 12.00896,-12.9654 13.94983,-30.3969 13.77152,-31.28843 l -0.004,-406.13889 c 0,0 -1.98218,11.99695 -1.86694,42.14434 0.0507,13.21855 0.11907,353.20397 -0.21129,363.77558 -0.33036,10.57161 -6.26537,20.36343 -13.67931,29.31393 -4.85161,5.85713 -14.06349,12.30065 -30.08604,13.97129 -14.86208,1.53802 -493.99382,0.92929 -510.0611,-0.89504 -13.88522,-1.56571 -30.15138,-12.41169 -33.49724,-15.4195 z"
           id="path3765"
           sodipodi:nodetypes="csccsccsssssc" />
        <path
           style="fill:#9da0ad;fill-opacity:0.99215686;stroke:none"
           d="m 133.22467,875.77187 c 0,0 7.2128,1.69713 12.72847,1.69713 5.51567,0 11.87991,-1.27285 11.87991,-1.27285 l 493.01616,-0.42428 c 0,0 13.15276,-2.12141 17.81986,-9.33421 4.66711,-7.2128 7.63709,-12.72847 7.63709,-16.12273 0,-3.39426 -0.42429,-387.36985 -0.42429,-387.36985 0,0 0.84857,-8.90993 -0.84856,-13.57703 -1.69713,-4.66711 4.24282,6.36423 4.24282,6.36423 0,0 0.84857,389.49126 -0.42428,400.5226 -1.27285,11.03134 -10.18278,22.06269 -24.60838,25.03266 -14.4256,2.96998 -52.61102,0.42429 -52.61102,0.42429 l -451.86077,0 c 0,0 -3.39425,-0.84857 -8.48565,-1.69713 -3.78976,-0.63163 -8.06136,-3.39426 -8.06136,-4.24283 z"
           id="path3799"
           sodipodi:nodetypes="csccsscscssccsc" />
        <g
           id="g3855"
           transform="translate(-1.8e-6,62.280696)">
          <path
             sodipodi:nodetypes="ccccccc"
             transform="translate(0,252.36218)"
             id="path3825"
             d="m 156.25,229 48.5,0 0,-72.75 3.625,-3.375 0,80.125 -56,0 3.875,-4 z"
             style="fill:#262d49;fill-opacity:1;stroke:none" />
          <path
             style="fill:#262d49;fill-opacity:1;stroke:none"
             d="m 212.5,481.36218 48.5,0 0,-72.75 3.625,-3.375 0,80.125 -56,0 3.875,-4 z"
             id="path3827"
             sodipodi:nodetypes="ccccccc" />
          <path
             sodipodi:nodetypes="ccccccc"
             id="path3829"
             d="m 268.625,481.36218 48.5,0 0,-72.75 3.625,-3.375 0,80.125 -56,0 3.875,-4 z"
             style="fill:#262d49;fill-opacity:1;stroke:none" />
          <path
             style="fill:#262d49;fill-opacity:1;stroke:none"
             d="m 324.625,481.36218 48.5,0 0,-72.75 3.625,-3.375 0,80.125 -56,0 3.875,-4 z"
             id="path3831"
             sodipodi:nodetypes="ccccccc" />
          <path
             sodipodi:nodetypes="ccccccc"
             id="path3833"
             d="m 473.875,481.36218 169.75,0 0,-72.75 3.625,-3.375 0,80.125 -177.25,0 3.875,-4 z"
             style="fill:#262d49;fill-opacity:1;stroke:none" />
          <path
             style="fill:#262d49;fill-opacity:1;stroke:none"
             d="m 156.375,630.11218 281.25,0 0,-120.75 3.625,-3.375 0,128.125 -288.75,0 3.875,-4 z"
             id="path3835"
             sodipodi:nodetypes="ccccccc" />
          <path
             sodipodi:nodetypes="ccccccc"
             id="path3837"
             d="m 473.64933,630.11218 80.38687,0 0,-120.75 3.625,-3.375 0,128.125 -87.88687,0 3.875,-4 z"
             style="fill:#262d49;fill-opacity:1;stroke:none" />
          <path
             style="fill:#262d49;fill-opacity:1;stroke:none"
             d="m 563.39933,630.11218 80.38687,0 0,-120.75 3.625,-3.375 0,128.125 -87.88687,0 3.875,-4 z"
             id="path3839"
             sodipodi:nodetypes="ccccccc" />
          <path
             sodipodi:nodetypes="ccccccc"
             id="path3841"
             d="m 156.14933,772.36218 75.88687,0 0,-114 3.625,-3.375 0,121.375 -83.38687,0 3.875,-4 z"
             style="fill:#262d49;fill-opacity:1;stroke:none" />
          <path
             style="fill:#262d49;fill-opacity:1;stroke:none"
             d="m 242.39933,772.36218 75.88687,0 0,-114 3.625,-3.375 0,121.375 -83.38687,0 3.875,-4 z"
             id="path3843"
             sodipodi:nodetypes="ccccccc" />
          <path
             style="fill:#262d49;fill-opacity:1;stroke:none"
             d="m 352.14933,772.36218 75.88687,0 0,-114 3.625,-3.375 0,121.375 -83.38687,0 3.875,-4 z"
             id="path3845"
             sodipodi:nodetypes="ccccccc" />
          <path
             sodipodi:nodetypes="ccccccc"
             id="path3847"
             d="m 438.39933,772.36218 75.88687,0 0,-114 3.625,-3.375 0,121.375 -83.38687,0 3.875,-4 z"
             style="fill:#262d49;fill-opacity:1;stroke:none" />
          <path
             style="fill:#262d49;fill-opacity:1;stroke:none"
             d="m 548.64933,723.61218 43.38687,0 0,-65.25 3.625,-3.375 0,72.625 -50.88687,0 3.875,-4 z"
             id="path3849"
             sodipodi:nodetypes="ccccccc" />
          <path
             sodipodi:nodetypes="ccccccc"
             id="path3851"
             d="m 600.39933,723.61218 43.38687,0 0,-65.25 3.625,-3.375 0,72.625 -50.88687,0 3.875,-4 z"
             style="fill:#262d49;fill-opacity:1;stroke:none" />
          <path
             style="fill:#262d49;fill-opacity:1;stroke:none"
             d="m 548.14933,772.36218 95.63687,0 0,-41.5 3.625,-3.375 0,48.875 -103.13687,0 3.875,-4 z"
             id="path3853"
             sodipodi:nodetypes="ccccccc" />
        </g>
        <g
           id="g3153"
           transform="translate(1.2245636,-5.2343748e-6)">
          <path
             sodipodi:nodetypes="ccccccc"
             id="path3872"
             d="m 151.27543,547.51788 3.75,-3.875 0,-72.75 48.5,0 3.75,-3.5 -55.625,0 -0.375,80.125 z"
             style="fill:#000000;fill-opacity:1;stroke:none" />
          <path
             sodipodi:nodetypes="ccccccc"
             id="path3876"
             d="m 207.52543,547.51788 3.75,-3.875 0,-72.75 48.5,0 3.75,-3.5 -55.625,0 -0.375,80.125 z"
             style="fill:#000000;fill-opacity:1;stroke:none" />
          <path
             sodipodi:nodetypes="ccccccc"
             id="path3878"
             d="m 263.52543,547.51788 3.75,-3.875 0,-72.75 48.5,0 3.75,-3.5 -55.625,0 -0.375,80.125 z"
             style="fill:#000000;fill-opacity:1;stroke:none" />
          <path
             style="fill:#000000;fill-opacity:1;stroke:none"
             d="m 319.52543,547.51788 3.75,-3.875 0,-72.75 48.5,0 3.75,-3.5 -55.625,0 -0.375,80.125 z"
             id="path3874"
             sodipodi:nodetypes="ccccccc" />
          <path
             sodipodi:nodetypes="ccccccc"
             id="path3880"
             d="m 468.52543,547.51788 3.75,-3.875 0,-72.75 170,0 3.75,-3.5 -177.125,0 -0.375,80.125 z"
             style="fill:#000000;fill-opacity:1;stroke:none" />
          <path
             style="fill:#000000;fill-opacity:1;stroke:none"
             d="m 151.19839,696.11692 3.75,-3.875 0,-120.40826 281.30127,0 3.75,-3.5 -288.42627,0 -0.375,127.78326 z"
             id="path4012"
             sodipodi:nodetypes="ccccccc" />
          <path
             sodipodi:nodetypes="ccccccc"
             id="path4014"
             d="m 468.82144,696.11692 3.75,-3.875 0,-120.40826 80.01173,0 3.75,-3.5 -87.13673,0 -0.375,127.78326 z"
             style="fill:#000000;fill-opacity:1;stroke:none" />
          <path
             style="fill:#000000;fill-opacity:1;stroke:none"
             d="m 558.51369,696.11692 3.75,-3.875 0,-120.40826 80.01173,0 3.75,-3.5 -87.13673,0 -0.375,127.78326 z"
             id="path4016"
             sodipodi:nodetypes="ccccccc" />
          <path
             sodipodi:nodetypes="ccccccc"
             id="path4018"
             d="m 151.19839,838.11692 3.75,-3.875 0,-113.65826 76.05127,0 3.75,-3.5 -83.17627,0 -0.375,121.03326 z"
             style="fill:#000000;fill-opacity:1;stroke:none" />
          <path
             style="fill:#000000;fill-opacity:1;stroke:none"
             d="m 237.19839,838.11692 3.75,-3.875 0,-113.65826 76.05127,0 3.75,-3.5 -83.17627,0 -0.375,121.03326 z"
             id="path4020"
             sodipodi:nodetypes="ccccccc" />
          <path
             style="fill:#000000;fill-opacity:1;stroke:none"
             d="m 346.94839,838.11692 3.75,-3.875 0,-113.65826 76.05127,0 3.75,-3.5 -83.17627,0 -0.375,121.03326 z"
             id="path4022"
             sodipodi:nodetypes="ccccccc" />
          <path
             sodipodi:nodetypes="ccccccc"
             id="path4024"
             d="m 432.94839,838.11692 3.75,-3.875 0,-113.65826 76.05127,0 3.75,-3.5 -83.17627,0 -0.375,121.03326 z"
             style="fill:#000000;fill-opacity:1;stroke:none" />
          <path
             style="fill:#000000;fill-opacity:1;stroke:none"
             d="m 543.19839,789.86692 3.75,-3.875 0,-65.40826 43.80127,0 3.75,-3.5 -50.92627,0 -0.375,72.78326 z"
             id="path4026"
             sodipodi:nodetypes="ccccccc" />
          <path
             style="fill:#000000;fill-opacity:1;stroke:none"
             d="m 595.44839,789.86692 3.75,-3.875 0,-65.40826 43.80127,0 3.75,-3.5 -50.92627,0 -0.375,72.78326 z"
             id="path4030"
             sodipodi:nodetypes="ccccccc" />
          <path
             sodipodi:nodetypes="ccccccc"
             id="path4028"
             d="m 543.19839,838.36692 3.75,-3.875 0,-40.90826 95.30127,0 3.75,-3.5 -102.42627,0 -0.375,48.28326 z"
             style="fill:#000000;fill-opacity:1;stroke:none" />
        </g>
      </g>
    </g>
    <g
       id="g3807"
       style="fill:#ffffff;fill-opacity:1"
       transform="matrix(0.9375,0,0,0.9375,99.907419,28.215893)">
      <rect
         style="fill:#ffffff;fill-opacity:1;stroke:none"
         id="day_0_a"
         width="85.713997"
         height="63.285"
         x="494.28601"
         y="580.11719" />
      <rect
         style="fill:#ffffff;fill-opacity:1;stroke:none"
         id="month_a"
         width="181.42799"
         height="37.876938"
         x="398.57202"
         y="472.36261" />
      <rect
         y="472.36261"
         x="60"
         height="37.876938"
         width="51.837002"
         id="year_3_a"
         style="fill:#ffffff;fill-opacity:1;stroke:none" />
      <rect
         style="fill:#ffffff;fill-opacity:1;stroke:none"
         id="year_2_a"
         width="51.837002"
         height="37.876938"
         x="119.837"
         y="472.36255" />
      <rect
         style="fill:#ffffff;fill-opacity:1;stroke:none"
         id="year_1_a"
         width="51.837002"
         height="37.876938"
         x="179.674"
         y="472.36261" />
      <rect
         y="472.36255"
         x="239.511"
         height="37.876938"
         width="51.837002"
         id="year_0_a"
         style="fill:#ffffff;fill-opacity:1;stroke:none" />
      <rect
         y="816.47009"
         x="478.22925"
         height="20.808001"
         width="101.77078"
         id="ampm_a"
         style="fill:#ffffff;fill-opacity:1;stroke:none" />
      <rect
         y="738.68817"
         x="478.22922"
         height="33.893002"
         width="46.523788"
         id="second_1_a"
         style="fill:#ffffff;fill-opacity:1;stroke:none" />
      <rect
         style="fill:#ffffff;fill-opacity:1;stroke:none"
         id="second_0_a"
         width="46.523788"
         height="33.893002"
         x="533.4762"
         y="738.68817" />
      <rect
         style="fill:#ffffff;fill-opacity:1;stroke:none"
         id="minute_0_a"
         width="80.932014"
         height="59.699001"
         x="360.95074"
         y="738.68817" />
      <rect
         y="738.68817"
         x="269.11426"
         height="59.699001"
         width="80.932014"
         id="minute_1_a"
         style="fill:#ffffff;fill-opacity:1;stroke:none" />
      <rect
         y="738.68817"
         x="151.83652"
         height="59.699001"
         width="80.932014"
         id="hour_0_a"
         style="fill:#ffffff;fill-opacity:1;stroke:none" />
      <rect
         style="fill:#ffffff;fill-opacity:1;stroke:none"
         id="hour_1_a"
         width="80.932014"
         height="59.699001"
         x="60"
         y="738.68817" />
      <rect
         y="512.24017"
         x="398.57202"
         height="37.876938"
         width="181.42799"
         id="month_b"
         style="fill:#ffffff;fill-opacity:1;stroke:none" />
      <rect
         style="fill:#ffffff;fill-opacity:1;stroke:none"
         id="year_3_b"
         width="51.837002"
         height="37.876938"
         x="60"
         y="512.24017" />
      <rect
         y="512.24011"
         x="119.837"
         height="37.876938"
         width="51.837002"
         id="year_2_b"
         style="fill:#ffffff;fill-opacity:1;stroke:none" />
      <rect
         y="512.24017"
         x="179.674"
         height="37.876938"
         width="51.837002"
         id="year_1_b"
         style="fill:#ffffff;fill-opacity:1;stroke:none" />
      <rect
         style="fill:#ffffff;fill-opacity:1;stroke:none"
         id="year_0_b"
         width="51.837002"
         height="37.876938"
         x="239.511"
         y="512.24011" />
      <rect
         style="fill:#ffffff;fill-opacity:1;stroke:none"
         id="weekday_b"
         width="300"
         height="63.285"
         x="60"
         y="645.4032" />
      <rect
         y="645.4032"
         x="494.28601"
         height="63.285"
         width="85.713997"
         id="day_0_b"
         style="fill:#ffffff;fill-opacity:1;stroke:none" />
      <rect
         style="fill:#ffffff;fill-opacity:1;stroke:none"
         id="day_1_b"
         width="85.713997"
         height="63.285"
         x="398.57199"
         y="645.4032" />
      <rect
         y="580.11719"
         x="60"
         height="63.285"
         width="300"
         id="weekday_a"
         style="fill:#ffffff;fill-opacity:1;stroke:none" />
      <rect
         y="580.11719"
         x="398.57199"
         height="63.285"
         width="85.713997"
         id="day_1_a"
         style="fill:#ffffff;fill-opacity:1;stroke:none" />
      <rect
         y="800.38715"
         x="360.95074"
         height="59.699001"
         width="80.932014"
         id="minute_0_b"
         style="fill:#ffffff;fill-opacity:1;stroke:none" />
      <rect
         style="fill:#ffffff;fill-opacity:1;stroke:none"
         id="minute_1_b"
         width="80.932014"
         height="59.699001"
         x="269.11426"
         y="800.38715" />
      <rect
         style="fill:#ffffff;fill-opacity:1;stroke:none"
         id="hour_0_b"
         width="80.932014"
         height="59.699001"
         x="151.83652"
         y="800.38715" />
      <rect
         y="800.38715"
         x="60"
         height="59.699001"
         width="80.932014"
         id="hour_1_b"
         style="fill:#ffffff;fill-opacity:1;stroke:none" />
      <rect
         style="fill:#ffffff;fill-opacity:1;stroke:none"
         id="second_1_b"
         width="46.523788"
         height="33.893002"
         x="478.22922"
         y="774.58356" />
      <rect
         y="774.58356"
         x="533.4762"
         height="33.893002"
         width="46.523788"
         id="second_0_b"
         style="fill:#ffffff;fill-opacity:1;stroke:none" />
      <rect
         style="fill:#ffffff;fill-opacity:1;stroke:none"
         id="ampm_b"
         width="101.77078"
         height="20.808001"
         x="478.22925"
         y="839.27814" />
    </g>
  </g>
</svg>
